<svg width="91" height="53" viewBox="0 0 91 53" fill="none" xmlns="http://www.w3.org/2000/svg">
<path d="M0.836617 17.4759C3.32362 12.9999 6.24462 8.90986 9.65962 5.09486C11.4076 3.14186 14.9216 5.59886 13.4296 7.85286C12.2596 9.62086 11.0896 11.3899 9.92062 13.1579C18.4376 9.96286 27.6286 7.77786 36.4076 8.91686C36.4396 8.87786 36.4676 8.83586 36.4996 8.79686C45.3756 -1.96514 62.2826 -1.91014 73.0756 5.68986C85.9736 14.7719 95.8416 37.6699 87.3306 52.4869C86.7956 53.4189 85.3216 52.8609 85.5766 51.7999C88.8756 38.0299 84.0036 21.3129 73.4286 11.7099C65.0996 4.14686 50.0366 1.89786 41.5656 10.0079C44.2146 10.7949 46.8056 11.9349 49.3026 13.5149C54.3136 16.6839 59.0626 22.2189 58.3786 28.5559C57.6926 34.9059 51.3936 38.6399 45.3716 37.9849C32.9796 36.6369 29.4896 23.1649 33.7746 13.2979C26.1836 12.7999 18.2486 14.9069 10.9976 17.7069C13.3676 18.2149 15.7086 18.8589 18.0366 19.6719C20.8966 20.6709 19.7676 25.2789 16.8866 24.2689C12.4456 22.7129 8.01862 21.6919 3.32362 21.2679C2.70161 21.2119 2.08662 20.9089 1.62662 20.4699C0.664619 19.8979 0.127617 18.7509 0.836617 17.4759ZM43.4386 32.7169C47.6526 34.3729 53.7626 32.7539 53.8166 27.3129C53.8546 23.4999 50.6286 20.0179 47.7196 18.0039C44.8006 15.9829 41.6906 14.6899 38.4746 13.9629C34.7736 20.3959 35.8246 29.7239 43.4386 32.7169Z" fill="white" fill-opacity="0.5"/>
</svg>
