<svg width="40" height="34" viewBox="0 0 40 34" fill="none" xmlns="http://www.w3.org/2000/svg">
<path fill-rule="evenodd" clip-rule="evenodd" d="M1.7806 0H38.2161C39.196 0 39.9967 0.807882 39.9967 1.79639V32.2003C39.9967 33.1888 39.196 33.9967 38.2161 33.9967H1.7806C0.800781 33.9967 0 33.1888 0 32.2003V1.79639C0 0.807882 0.800781 0 1.7806 0ZM10.3646 12.6601L16.1556 18.7094L16.8522 19.4089L16.1621 20.1182L10.3125 26.3744L8.66211 24.7323L13.8216 19.4286L8.72721 14.3186L10.3646 12.6601ZM30.6315 26.0788H17.8027V23.8325H30.6315V26.0788ZM12.4316 3.22824C13.47 3.22824 14.3131 4.07882 14.3131 5.12644C14.3131 6.17406 13.47 7.02463 12.4316 7.02463C11.3932 7.02463 10.5501 6.17406 10.5501 5.12644C10.5501 4.07882 11.3932 3.22824 12.4316 3.22824ZM6.16862 3.22824C7.20703 3.22824 8.05013 4.07882 8.05013 5.12644C8.05013 6.17406 7.20703 7.02463 6.16862 7.02463C5.13021 7.02463 4.28711 6.17406 4.28711 5.12644C4.28711 4.07882 5.12695 3.22824 6.16862 3.22824ZM2.43815 1.77668H37.5651C37.9394 1.77668 38.2454 2.08539 38.2454 2.46305V8.47947H1.75781V2.46305C1.75781 2.08539 2.0638 1.77668 2.43815 1.77668Z" fill="#3D6BD8"/>
</svg>
