<svg width="615" height="473" viewBox="0 0 615 473" fill="none" xmlns="http://www.w3.org/2000/svg">
<g filter="url(#filter0_d_405_1244)">
<rect x="47" y="24" width="521.7" height="379" rx="36.8259" fill="white"/>
</g>
<rect x="109.144" y="155.192" width="395.879" height="185.664" rx="9.97368" fill="white" stroke="#DEDEDE" stroke-width="1.53441"/>
<rect x="139.065" y="174.373" width="21.4818" height="21.4818" rx="6.13765" fill="#31C9A1"/>
<rect x="139.065" y="237.283" width="21.4818" height="21.4818" rx="6.13765" fill="#748EA3"/>
<rect x="142.901" y="241.12" width="13.8097" height="13.8097" rx="6.90486" stroke="white" stroke-width="1.53441"/>
<rect x="150.573" y="244.188" width="1.53441" height="1.53441" rx="0.767206" stroke="white" stroke-width="1.53441"/>
<rect x="139.065" y="300.194" width="21.4818" height="21.4818" rx="6.13765" fill="#306EE2"/>
<path d="M175.443 192.373L170.324 179.594H172.202L176.419 190.402H175.737L179.991 179.594H181.85L176.695 192.373H175.443ZM185.566 192.557C184.769 192.557 184.044 192.36 183.394 191.967C182.743 191.562 182.228 191.016 181.847 190.329C181.479 189.641 181.295 188.868 181.295 188.009C181.295 187.149 181.479 186.376 181.847 185.689C182.228 185.001 182.737 184.455 183.375 184.05C184.026 183.645 184.756 183.442 185.566 183.442C186.229 183.442 186.819 183.583 187.334 183.866C187.862 184.136 188.285 184.516 188.605 185.007C188.924 185.486 189.102 186.045 189.139 186.683V189.316C189.102 189.942 188.924 190.501 188.605 190.992C188.298 191.483 187.88 191.869 187.353 192.152C186.837 192.422 186.242 192.557 185.566 192.557ZM185.843 190.992C186.665 190.992 187.328 190.715 187.831 190.163C188.335 189.598 188.586 188.88 188.586 188.009C188.586 187.407 188.47 186.885 188.236 186.444C188.015 185.989 187.696 185.64 187.279 185.394C186.862 185.136 186.377 185.007 185.824 185.007C185.272 185.007 184.781 185.136 184.351 185.394C183.934 185.652 183.602 186.008 183.357 186.462C183.124 186.904 183.007 187.413 183.007 187.99C183.007 188.579 183.124 189.101 183.357 189.555C183.602 189.997 183.94 190.347 184.37 190.605C184.799 190.863 185.29 190.992 185.843 190.992ZM188.476 192.373V190.016L188.789 187.88L188.476 185.762V183.626H190.151V192.373H188.476ZM192.564 192.373V179.226H194.221V192.373H192.564ZM196.664 192.373V183.626H198.321V192.373H196.664ZM197.493 181.877C197.186 181.877 196.934 181.779 196.738 181.583C196.541 181.374 196.443 181.116 196.443 180.809C196.443 180.515 196.541 180.269 196.738 180.073C196.934 179.864 197.186 179.76 197.493 179.76C197.8 179.76 198.051 179.864 198.248 180.073C198.444 180.269 198.542 180.515 198.542 180.809C198.542 181.116 198.444 181.374 198.248 181.583C198.051 181.779 197.8 181.877 197.493 181.877ZM204.464 192.557C203.654 192.557 202.93 192.36 202.292 191.967C201.653 191.562 201.144 191.016 200.763 190.329C200.395 189.641 200.211 188.868 200.211 188.009C200.211 187.149 200.395 186.376 200.763 185.689C201.144 185.001 201.653 184.455 202.292 184.05C202.93 183.645 203.654 183.442 204.464 183.442C205.115 183.442 205.704 183.583 206.232 183.866C206.76 184.136 207.183 184.516 207.503 185.007C207.834 185.486 208.018 186.045 208.055 186.683V189.316C208.018 189.942 207.84 190.501 207.521 190.992C207.202 191.483 206.778 191.869 206.251 192.152C205.723 192.422 205.127 192.557 204.464 192.557ZM204.741 190.992C205.293 190.992 205.772 190.863 206.177 190.605C206.594 190.347 206.92 189.997 207.153 189.555C207.386 189.101 207.503 188.586 207.503 188.009C207.503 187.407 207.38 186.885 207.134 186.444C206.901 186.002 206.576 185.652 206.158 185.394C205.753 185.136 205.275 185.007 204.722 185.007C204.17 185.007 203.685 185.136 203.268 185.394C202.85 185.652 202.519 186.008 202.273 186.462C202.04 186.904 201.924 187.413 201.924 187.99C201.924 188.579 202.04 189.101 202.273 189.555C202.519 189.997 202.85 190.347 203.268 190.605C203.697 190.863 204.188 190.992 204.741 190.992ZM209.068 192.373H207.392V190.016L207.705 187.88L207.392 185.762V179.226H209.068V192.373Z" fill="#02040B"/>
<path d="M436.637 192.373V179.428H439.104V192.373H436.637ZM434.096 181.601V179.428H438.92V181.601H434.096ZM440.912 190.936L445.791 185.836C446.135 185.468 446.411 185.142 446.62 184.86C446.841 184.565 447 184.289 447.099 184.031C447.197 183.761 447.246 183.491 447.246 183.221C447.246 182.681 447.068 182.258 446.712 181.951C446.368 181.644 445.92 181.491 445.368 181.491C444.803 181.491 444.3 181.638 443.858 181.932C443.428 182.227 443.023 182.693 442.643 183.332L440.93 181.877C441.446 181.006 442.084 180.349 442.845 179.907C443.619 179.453 444.502 179.226 445.497 179.226C446.344 179.226 447.08 179.391 447.706 179.723C448.344 180.054 448.836 180.515 449.179 181.104C449.523 181.693 449.695 182.38 449.695 183.166C449.695 183.694 449.627 184.173 449.492 184.602C449.369 185.032 449.155 185.462 448.848 185.891C448.553 186.309 448.142 186.781 447.614 187.309L444.06 190.936H440.912ZM440.912 192.373V190.936L443.048 190.2H449.971V192.373H440.912ZM456.724 192.557C455.705 192.557 454.784 192.28 453.962 191.728C453.139 191.176 452.483 190.396 451.992 189.39C451.513 188.383 451.273 187.211 451.273 185.873C451.273 184.535 451.513 183.369 451.992 182.374C452.47 181.38 453.115 180.607 453.925 180.054C454.747 179.502 455.662 179.226 456.668 179.226C457.7 179.226 458.62 179.502 459.43 180.054C460.253 180.607 460.903 181.386 461.382 182.393C461.861 183.387 462.1 184.559 462.1 185.91C462.1 187.248 461.861 188.42 461.382 189.426C460.903 190.421 460.259 191.194 459.449 191.747C458.639 192.287 457.73 192.557 456.724 192.557ZM456.687 190.292C457.276 190.292 457.785 190.126 458.215 189.795C458.645 189.463 458.976 188.972 459.209 188.322C459.455 187.671 459.578 186.861 459.578 185.891C459.578 184.921 459.455 184.111 459.209 183.461C458.976 182.81 458.639 182.325 458.197 182.006C457.767 181.675 457.258 181.509 456.668 181.509C456.091 181.509 455.588 181.675 455.159 182.006C454.729 182.325 454.391 182.81 454.146 183.461C453.913 184.099 453.796 184.903 453.796 185.873C453.796 186.855 453.913 187.671 454.146 188.322C454.391 188.972 454.729 189.463 455.159 189.795C455.588 190.126 456.098 190.292 456.687 190.292ZM468.879 192.557C467.86 192.557 466.94 192.28 466.117 191.728C465.295 191.176 464.638 190.396 464.147 189.39C463.668 188.383 463.429 187.211 463.429 185.873C463.429 184.535 463.668 183.369 464.147 182.374C464.626 181.38 465.27 180.607 466.08 180.054C466.903 179.502 467.817 179.226 468.824 179.226C469.855 179.226 470.776 179.502 471.586 180.054C472.408 180.607 473.059 181.386 473.538 182.393C474.016 183.387 474.256 184.559 474.256 185.91C474.256 187.248 474.016 188.42 473.538 189.426C473.059 190.421 472.414 191.194 471.604 191.747C470.794 192.287 469.886 192.557 468.879 192.557ZM468.842 190.292C469.431 190.292 469.941 190.126 470.371 189.795C470.8 189.463 471.132 188.972 471.365 188.322C471.61 187.671 471.733 186.861 471.733 185.891C471.733 184.921 471.61 184.111 471.365 183.461C471.132 182.81 470.794 182.325 470.352 182.006C469.922 181.675 469.413 181.509 468.824 181.509C468.247 181.509 467.744 181.675 467.314 182.006C466.884 182.325 466.547 182.81 466.301 183.461C466.068 184.099 465.951 184.903 465.951 185.873C465.951 186.855 466.068 187.671 466.301 188.322C466.547 188.972 466.884 189.463 467.314 189.795C467.744 190.126 468.253 190.292 468.842 190.292Z" fill="#02040B"/>
<path d="M171.263 255.283V242.505H172.994V255.283H171.263ZM181.902 255.283V250.183C181.902 249.52 181.693 248.974 181.276 248.544C180.859 248.115 180.319 247.9 179.656 247.9C179.214 247.9 178.821 247.998 178.477 248.194C178.134 248.391 177.864 248.661 177.667 249.005C177.471 249.348 177.373 249.741 177.373 250.183L176.691 249.796C176.691 249.134 176.839 248.544 177.133 248.029C177.428 247.513 177.839 247.108 178.367 246.813C178.895 246.507 179.49 246.353 180.153 246.353C180.816 246.353 181.399 246.519 181.902 246.85C182.418 247.182 182.823 247.618 183.117 248.158C183.412 248.685 183.559 249.25 183.559 249.852V255.283H181.902ZM175.715 255.283V246.537H177.373V255.283H175.715ZM188.804 255.283L184.79 246.537H186.632L189.854 253.921H188.786L192.027 246.537H193.794L189.78 255.283H188.804ZM198.603 255.468C197.805 255.468 197.081 255.271 196.43 254.878C195.78 254.473 195.264 253.927 194.884 253.24C194.515 252.552 194.331 251.779 194.331 250.92C194.331 250.06 194.515 249.287 194.884 248.6C195.264 247.912 195.774 247.366 196.412 246.961C197.062 246.556 197.793 246.353 198.603 246.353C199.266 246.353 199.855 246.494 200.371 246.777C200.898 247.047 201.322 247.427 201.641 247.918C201.96 248.397 202.138 248.956 202.175 249.594V252.227C202.138 252.853 201.96 253.411 201.641 253.902C201.334 254.393 200.917 254.78 200.389 255.062C199.873 255.333 199.278 255.468 198.603 255.468ZM198.879 253.902C199.702 253.902 200.364 253.626 200.868 253.074C201.371 252.509 201.623 251.791 201.623 250.92C201.623 250.318 201.506 249.796 201.273 249.354C201.052 248.9 200.733 248.55 200.315 248.305C199.898 248.047 199.413 247.918 198.861 247.918C198.308 247.918 197.817 248.047 197.388 248.305C196.97 248.563 196.639 248.919 196.393 249.373C196.16 249.815 196.044 250.324 196.044 250.901C196.044 251.49 196.16 252.012 196.393 252.466C196.639 252.908 196.977 253.258 197.406 253.516C197.836 253.774 198.327 253.902 198.879 253.902ZM201.512 255.283V252.927L201.825 250.791L201.512 248.673V246.537H203.188V255.283H201.512ZM205.6 255.283V242.137H207.258V255.283H205.6ZM209.701 255.283V246.537H211.358V255.283H209.701ZM210.529 244.788C210.222 244.788 209.971 244.69 209.774 244.493C209.578 244.285 209.48 244.027 209.48 243.72C209.48 243.426 209.578 243.18 209.774 242.984C209.971 242.775 210.222 242.671 210.529 242.671C210.836 242.671 211.088 242.775 211.284 242.984C211.481 243.18 211.579 243.426 211.579 243.72C211.579 244.027 211.481 244.285 211.284 244.493C211.088 244.69 210.836 244.788 210.529 244.788ZM217.501 255.468C216.691 255.468 215.967 255.271 215.328 254.878C214.69 254.473 214.181 253.927 213.8 253.24C213.432 252.552 213.248 251.779 213.248 250.92C213.248 250.06 213.432 249.287 213.8 248.6C214.181 247.912 214.69 247.366 215.328 246.961C215.967 246.556 216.691 246.353 217.501 246.353C218.152 246.353 218.741 246.494 219.269 246.777C219.796 247.047 220.22 247.427 220.539 247.918C220.871 248.397 221.055 248.956 221.092 249.594V252.227C221.055 252.853 220.877 253.411 220.558 253.902C220.238 254.393 219.815 254.78 219.287 255.062C218.759 255.333 218.164 255.468 217.501 255.468ZM217.777 253.902C218.33 253.902 218.808 253.774 219.213 253.516C219.631 253.258 219.956 252.908 220.189 252.466C220.423 252.012 220.539 251.497 220.539 250.92C220.539 250.318 220.416 249.796 220.171 249.354C219.938 248.913 219.612 248.563 219.195 248.305C218.79 248.047 218.311 247.918 217.759 247.918C217.206 247.918 216.722 248.047 216.304 248.305C215.887 248.563 215.555 248.919 215.31 249.373C215.077 249.815 214.96 250.324 214.96 250.901C214.96 251.49 215.077 252.012 215.31 252.466C215.555 252.908 215.887 253.258 216.304 253.516C216.734 253.774 217.225 253.902 217.777 253.902ZM222.104 255.283H220.429V252.927L220.742 250.791L220.429 248.673V242.137H222.104V255.283Z" fill="#02040B"/>
<path d="M454.08 250.717L458.499 242.339H461.261L456.731 250.717H454.08ZM454.08 252.19V250.717L455 249.999H464.281V252.19H454.08ZM460.193 255.283V247.034H462.66V255.283H460.193ZM469.137 255.468C468.241 255.468 467.425 255.314 466.688 255.007C465.952 254.688 465.338 254.234 464.847 253.645L466.504 252.006C466.75 252.374 467.1 252.669 467.554 252.89C468.02 253.111 468.53 253.221 469.082 253.221C469.585 253.221 470.021 253.129 470.389 252.945C470.77 252.761 471.065 252.503 471.273 252.172C471.494 251.828 471.605 251.429 471.605 250.975C471.605 250.496 471.494 250.091 471.273 249.76C471.065 249.428 470.782 249.176 470.426 249.005C470.07 248.833 469.671 248.747 469.229 248.747C468.763 248.747 468.339 248.808 467.959 248.931C467.591 249.041 467.235 249.226 466.891 249.483L467.038 247.9C467.272 247.654 467.517 247.458 467.775 247.311C468.033 247.151 468.321 247.034 468.64 246.961C468.972 246.875 469.358 246.832 469.8 246.832C470.745 246.832 471.531 247.028 472.157 247.421C472.795 247.802 473.28 248.317 473.612 248.968C473.943 249.606 474.109 250.312 474.109 251.085C474.109 251.932 473.9 252.687 473.483 253.35C473.065 254.013 472.482 254.535 471.734 254.915C470.997 255.283 470.132 255.468 469.137 255.468ZM466.891 249.483L465.694 248.305L466.283 242.339H468.548L467.885 248.397L466.891 249.483ZM466.67 244.512L466.283 242.339H473.391V244.512H466.67Z" fill="#02040B"/>
<path d="M172.423 311.099V309.645H175.885C176.633 309.645 177.21 309.454 177.615 309.074C178.02 308.693 178.223 308.178 178.223 307.527C178.223 306.913 178.02 306.404 177.615 305.999C177.223 305.594 176.652 305.391 175.903 305.391H172.423V303.881H175.958C176.768 303.881 177.474 304.041 178.076 304.36C178.677 304.667 179.138 305.09 179.457 305.631C179.788 306.171 179.954 306.791 179.954 307.49C179.954 308.215 179.788 308.847 179.457 309.387C179.138 309.927 178.677 310.35 178.076 310.657C177.474 310.952 176.768 311.099 175.958 311.099H172.423ZM171.263 316.66V303.881H172.994V316.66H171.263ZM178.628 316.66L173.988 310.933L175.627 310.363L180.819 316.66H178.628ZM182.585 316.66V307.914H184.242V316.66H182.585ZM183.413 306.165C183.106 306.165 182.855 306.066 182.658 305.87C182.462 305.661 182.364 305.403 182.364 305.097C182.364 304.802 182.462 304.556 182.658 304.36C182.855 304.151 183.106 304.047 183.413 304.047C183.72 304.047 183.972 304.151 184.168 304.36C184.365 304.556 184.463 304.802 184.463 305.097C184.463 305.403 184.365 305.661 184.168 305.87C183.972 306.066 183.72 306.165 183.413 306.165ZM189.464 316.844C188.973 316.844 188.507 316.783 188.065 316.66C187.635 316.525 187.236 316.341 186.868 316.108C186.5 315.862 186.181 315.574 185.911 315.242L186.979 314.174C187.298 314.567 187.666 314.862 188.083 315.058C188.501 315.242 188.967 315.334 189.483 315.334C189.998 315.334 190.397 315.248 190.68 315.076C190.962 314.892 191.103 314.641 191.103 314.321C191.103 314.002 190.987 313.757 190.753 313.585C190.532 313.401 190.244 313.254 189.888 313.143C189.532 313.02 189.151 312.904 188.746 312.793C188.353 312.67 187.979 312.517 187.623 312.333C187.267 312.149 186.973 311.897 186.739 311.578C186.518 311.259 186.408 310.835 186.408 310.307C186.408 309.78 186.537 309.325 186.795 308.945C187.052 308.552 187.408 308.251 187.862 308.043C188.329 307.834 188.887 307.73 189.538 307.73C190.225 307.73 190.833 307.852 191.361 308.098C191.901 308.331 192.343 308.687 192.687 309.166L191.619 310.234C191.373 309.915 191.066 309.669 190.698 309.497C190.342 309.325 189.937 309.239 189.483 309.239C189.004 309.239 188.636 309.325 188.378 309.497C188.133 309.657 188.01 309.884 188.01 310.179C188.01 310.473 188.12 310.7 188.341 310.86C188.562 311.019 188.851 311.154 189.207 311.265C189.575 311.375 189.955 311.492 190.348 311.615C190.741 311.725 191.115 311.879 191.471 312.075C191.827 312.271 192.116 312.535 192.337 312.867C192.57 313.198 192.687 313.634 192.687 314.174C192.687 314.997 192.392 315.647 191.803 316.126C191.226 316.605 190.446 316.844 189.464 316.844ZM200.139 316.66L196.052 312.186L200.103 307.914H202.11L197.598 312.627L197.672 311.67L202.275 316.66H200.139ZM194.542 316.66V303.513H196.199V316.66H194.542Z" fill="#02040B"/>
<path d="M454.35 316.66L458.29 311.173L459.192 310.897C459.045 311.179 458.873 311.431 458.677 311.652C458.493 311.86 458.253 312.02 457.959 312.13C457.664 312.241 457.277 312.296 456.799 312.296C456.038 312.296 455.338 312.118 454.7 311.762C454.074 311.394 453.57 310.891 453.19 310.252C452.809 309.614 452.619 308.884 452.619 308.061C452.619 307.226 452.828 306.465 453.245 305.778C453.662 305.078 454.227 304.526 454.939 304.121C455.651 303.716 456.443 303.513 457.314 303.513C458.198 303.513 458.99 303.716 459.69 304.121C460.402 304.526 460.96 305.066 461.365 305.741C461.783 306.416 461.991 307.171 461.991 308.006C461.991 309.147 461.592 310.301 460.794 311.467L457.204 316.66H454.35ZM457.314 310.381C457.744 310.381 458.124 310.283 458.456 310.086C458.787 309.89 459.045 309.62 459.229 309.276C459.426 308.92 459.524 308.528 459.524 308.098C459.524 307.644 459.426 307.245 459.229 306.901C459.045 306.557 458.787 306.287 458.456 306.091C458.124 305.882 457.744 305.778 457.314 305.778C456.885 305.778 456.498 305.882 456.154 306.091C455.823 306.287 455.559 306.557 455.363 306.901C455.178 307.245 455.086 307.644 455.086 308.098C455.086 308.54 455.178 308.933 455.363 309.276C455.559 309.62 455.829 309.89 456.173 310.086C456.516 310.283 456.897 310.381 457.314 310.381ZM468.663 316.844C467.644 316.844 466.724 316.568 465.901 316.015C465.079 315.463 464.422 314.684 463.931 313.677C463.452 312.67 463.213 311.498 463.213 310.16C463.213 308.822 463.452 307.656 463.931 306.662C464.41 305.667 465.054 304.894 465.865 304.342C466.687 303.789 467.601 303.513 468.608 303.513C469.639 303.513 470.56 303.789 471.37 304.342C472.192 304.894 472.843 305.674 473.322 306.68C473.801 307.674 474.04 308.847 474.04 310.197C474.04 311.535 473.801 312.707 473.322 313.714C472.843 314.708 472.199 315.481 471.388 316.034C470.578 316.574 469.67 316.844 468.663 316.844ZM468.626 314.579C469.216 314.579 469.725 314.414 470.155 314.082C470.584 313.751 470.916 313.26 471.149 312.609C471.395 311.958 471.517 311.148 471.517 310.179C471.517 309.209 471.395 308.399 471.149 307.748C470.916 307.097 470.578 306.613 470.136 306.293C469.707 305.962 469.197 305.796 468.608 305.796C468.031 305.796 467.528 305.962 467.098 306.293C466.669 306.613 466.331 307.097 466.085 307.748C465.852 308.386 465.736 309.19 465.736 310.16C465.736 311.142 465.852 311.958 466.085 312.609C466.331 313.26 466.669 313.751 467.098 314.082C467.528 314.414 468.037 314.579 468.626 314.579Z" fill="#02040B"/>
<rect x="108.76" y="216.185" width="396.646" height="0.767206" rx="0.383603" fill="white" stroke="#DEDEDE" stroke-width="0.767206"/>
<rect x="108.76" y="279.096" width="396.646" height="0.767206" rx="0.383603" fill="white" stroke="#DEDEDE" stroke-width="0.767206"/>
<path d="M111.046 116.376V94.8026H115.22V116.376H111.046ZM114.115 116.376V112.663H125.101V116.376H114.115ZM127.669 116.376V101.554H131.72V116.376H127.669ZM129.694 99.1603C129.04 99.1603 128.497 98.9455 128.068 98.5159C127.638 98.0658 127.423 97.5134 127.423 96.8587C127.423 96.2245 127.638 95.6823 128.068 95.2323C128.497 94.7822 129.04 94.5571 129.694 94.5571C130.369 94.5571 130.912 94.7822 131.321 95.2323C131.75 95.6823 131.965 96.2245 131.965 96.8587C131.965 97.5134 131.75 98.0658 131.321 98.5159C130.912 98.9455 130.369 99.1603 129.694 99.1603ZM140.375 116.714C139.536 116.714 138.708 116.602 137.889 116.376C137.092 116.151 136.355 115.845 135.68 115.456C135.005 115.047 134.422 114.556 133.931 113.983L136.324 111.558C136.836 112.131 137.429 112.561 138.104 112.847C138.779 113.134 139.526 113.277 140.345 113.277C140.999 113.277 141.49 113.185 141.818 113.001C142.165 112.817 142.339 112.54 142.339 112.172C142.339 111.763 142.155 111.446 141.787 111.221C141.439 110.996 140.979 110.812 140.406 110.668C139.833 110.505 139.23 110.331 138.595 110.147C137.982 109.942 137.388 109.686 136.815 109.38C136.243 109.052 135.772 108.612 135.404 108.06C135.056 107.487 134.882 106.751 134.882 105.85C134.882 104.909 135.107 104.091 135.557 103.395C136.028 102.7 136.693 102.158 137.552 101.769C138.411 101.38 139.424 101.186 140.59 101.186C141.818 101.186 142.922 101.401 143.904 101.83C144.907 102.26 145.735 102.904 146.39 103.764L143.966 106.188C143.516 105.636 143.004 105.237 142.431 104.991C141.879 104.746 141.275 104.623 140.621 104.623C140.027 104.623 139.567 104.715 139.24 104.899C138.933 105.083 138.779 105.339 138.779 105.666C138.779 106.035 138.953 106.321 139.301 106.526C139.669 106.73 140.14 106.914 140.713 107.078C141.286 107.221 141.879 107.395 142.493 107.6C143.127 107.784 143.72 108.05 144.273 108.398C144.845 108.745 145.306 109.206 145.654 109.778C146.022 110.351 146.206 111.088 146.206 111.988C146.206 113.441 145.684 114.597 144.641 115.456C143.597 116.295 142.176 116.714 140.375 116.714ZM151.096 116.376V95.3857H155.116V116.376H151.096ZM147.628 105.083V101.554H158.584V105.083H147.628ZM173.528 116.683C171.789 116.683 170.296 116.387 169.048 115.793C167.82 115.2 166.705 114.31 165.703 113.124L168.465 110.362C169.099 111.2 169.836 111.855 170.674 112.326C171.513 112.776 172.536 113.001 173.743 113.001C174.827 113.001 175.687 112.786 176.321 112.356C176.976 111.927 177.303 111.333 177.303 110.576C177.303 109.922 177.119 109.39 176.751 108.981C176.382 108.571 175.891 108.224 175.278 107.937C174.684 107.651 174.019 107.395 173.283 107.17C172.567 106.924 171.841 106.648 171.104 106.341C170.388 106.035 169.723 105.656 169.109 105.206C168.516 104.735 168.035 104.142 167.667 103.426C167.299 102.69 167.115 101.769 167.115 100.664C167.115 99.3547 167.432 98.2397 168.066 97.3191C168.7 96.3984 169.57 95.6926 170.674 95.2016C171.779 94.7106 173.027 94.465 174.418 94.465C175.891 94.465 177.221 94.7412 178.408 95.2936C179.594 95.846 180.566 96.5621 181.323 97.4418L178.561 100.204C177.927 99.5082 177.272 98.9967 176.597 98.6693C175.943 98.342 175.196 98.1783 174.357 98.1783C173.395 98.1783 172.638 98.3625 172.086 98.7307C171.534 99.099 171.257 99.6309 171.257 100.327C171.257 100.92 171.442 101.401 171.81 101.769C172.178 102.137 172.659 102.454 173.252 102.72C173.866 102.986 174.531 103.242 175.247 103.487C175.983 103.733 176.71 104.009 177.426 104.316C178.162 104.623 178.827 105.022 179.421 105.513C180.034 106.004 180.525 106.638 180.894 107.415C181.262 108.172 181.446 109.114 181.446 110.239C181.446 112.244 180.74 113.819 179.328 114.965C177.917 116.11 175.983 116.683 173.528 116.683ZM186.489 116.376V95.3857H190.509V116.376H186.489ZM183.021 105.083V101.554H193.977V105.083H183.021ZM202.077 116.683C200.727 116.683 199.51 116.346 198.425 115.671C197.341 114.995 196.492 114.075 195.878 112.909C195.265 111.743 194.958 110.433 194.958 108.981C194.958 107.508 195.265 106.188 195.878 105.022C196.492 103.856 197.341 102.935 198.425 102.26C199.51 101.585 200.727 101.247 202.077 101.247C203.141 101.247 204.093 101.462 204.931 101.892C205.77 102.321 206.435 102.925 206.926 103.702C207.438 104.459 207.714 105.318 207.755 106.28V111.62C207.714 112.602 207.438 113.471 206.926 114.228C206.435 114.985 205.77 115.589 204.931 116.039C204.093 116.469 203.141 116.683 202.077 116.683ZM202.814 112.97C203.939 112.97 204.849 112.602 205.545 111.865C206.241 111.108 206.588 110.137 206.588 108.95C206.588 108.172 206.425 107.487 206.097 106.894C205.791 106.28 205.351 105.809 204.778 105.482C204.225 105.134 203.571 104.96 202.814 104.96C202.077 104.96 201.423 105.134 200.85 105.482C200.297 105.809 199.858 106.28 199.53 106.894C199.223 107.487 199.07 108.172 199.07 108.95C199.07 109.748 199.223 110.454 199.53 111.067C199.858 111.661 200.297 112.131 200.85 112.479C201.423 112.806 202.077 112.97 202.814 112.97ZM206.374 116.376V112.387L207.018 108.766L206.374 105.206V101.554H210.363V116.376H206.374ZM216.098 116.376V95.3857H220.119V116.376H216.098ZM212.631 105.083V101.554H223.586V105.083H212.631ZM232.169 116.683C230.86 116.683 229.694 116.407 228.671 115.855C227.668 115.302 226.88 114.535 226.308 113.553C225.735 112.571 225.448 111.436 225.448 110.147V101.554H229.499V110.055C229.499 110.668 229.601 111.2 229.806 111.65C230.011 112.08 230.318 112.407 230.727 112.632C231.136 112.858 231.617 112.97 232.169 112.97C233.008 112.97 233.663 112.714 234.133 112.203C234.604 111.691 234.839 110.975 234.839 110.055V101.554H238.859V110.147C238.859 111.456 238.573 112.602 238 113.584C237.447 114.566 236.66 115.333 235.637 115.885C234.634 116.417 233.478 116.683 232.169 116.683ZM247.155 116.714C246.316 116.714 245.487 116.602 244.669 116.376C243.871 116.151 243.135 115.845 242.459 115.456C241.784 115.047 241.201 114.556 240.71 113.983L243.104 111.558C243.615 112.131 244.209 112.561 244.884 112.847C245.559 113.134 246.306 113.277 247.124 113.277C247.779 113.277 248.27 113.185 248.597 113.001C248.945 112.817 249.119 112.54 249.119 112.172C249.119 111.763 248.935 111.446 248.566 111.221C248.219 110.996 247.758 110.812 247.185 110.668C246.613 110.505 246.009 110.331 245.375 110.147C244.761 109.942 244.168 109.686 243.595 109.38C243.022 109.052 242.552 108.612 242.183 108.06C241.835 107.487 241.662 106.751 241.662 105.85C241.662 104.909 241.887 104.091 242.337 103.395C242.807 102.7 243.472 102.158 244.331 101.769C245.191 101.38 246.203 101.186 247.37 101.186C248.597 101.186 249.702 101.401 250.684 101.83C251.686 102.26 252.515 102.904 253.17 103.764L250.745 106.188C250.295 105.636 249.784 105.237 249.211 104.991C248.659 104.746 248.055 104.623 247.4 104.623C246.807 104.623 246.347 104.715 246.019 104.899C245.712 105.083 245.559 105.339 245.559 105.666C245.559 106.035 245.733 106.321 246.081 106.526C246.449 106.73 246.92 106.914 247.492 107.078C248.065 107.221 248.659 107.395 249.272 107.6C249.906 107.784 250.5 108.05 251.052 108.398C251.625 108.745 252.085 109.206 252.433 109.778C252.801 110.351 252.986 111.088 252.986 111.988C252.986 113.441 252.464 114.597 251.42 115.456C250.377 116.295 248.955 116.714 247.155 116.714Z" fill="#02040B"/>
<path d="M145.97 185.497L149.038 188.566L153.642 181.661" stroke="white" stroke-width="1.15081" stroke-linecap="round" stroke-linejoin="round"/>
<path d="M155.258 306.699C155.593 306.439 156.078 306.497 156.304 306.856C157.175 308.245 157.583 309.883 157.455 311.531C157.306 313.435 156.453 315.215 155.062 316.524C153.671 317.832 151.842 318.575 149.933 318.606C148.023 318.638 146.17 317.956 144.737 316.694C143.303 315.433 142.392 313.682 142.181 311.783C141.969 309.885 142.474 307.977 143.595 306.431C144.716 304.885 146.374 303.813 148.244 303.424C149.862 303.087 151.538 303.284 153.026 303.972C153.411 304.15 153.531 304.624 153.316 304.989C153.1 305.354 152.631 305.47 152.242 305.302C151.087 304.802 149.8 304.667 148.556 304.926C147.06 305.237 145.734 306.095 144.837 307.332C143.94 308.569 143.537 310.095 143.706 311.614C143.875 313.132 144.604 314.533 145.751 315.543C146.897 316.552 148.38 317.097 149.907 317.072C151.435 317.047 152.898 316.453 154.011 315.406C155.124 314.359 155.806 312.935 155.925 311.412C156.023 310.145 155.726 308.885 155.084 307.803C154.868 307.439 154.923 306.959 155.258 306.699Z" fill="white"/>
<defs>
<filter id="filter0_d_405_1244" x="0.967613" y="0.983807" width="613.765" height="471.065" filterUnits="userSpaceOnUse" color-interpolation-filters="sRGB">
<feFlood flood-opacity="0" result="BackgroundImageFix"/>
<feColorMatrix in="SourceAlpha" type="matrix" values="0 0 0 0 0 0 0 0 0 0 0 0 0 0 0 0 0 0 127 0" result="hardAlpha"/>
<feOffset dy="23.0162"/>
<feGaussianBlur stdDeviation="23.0162"/>
<feComposite in2="hardAlpha" operator="out"/>
<feColorMatrix type="matrix" values="0 0 0 0 0 0 0 0 0 0 0 0 0 0 0 0 0 0 0.15 0"/>
<feBlend mode="normal" in2="BackgroundImageFix" result="effect1_dropShadow_405_1244"/>
<feBlend mode="normal" in="SourceGraphic" in2="effect1_dropShadow_405_1244" result="shape"/>
</filter>
</defs>
</svg>
