<svg width="18" height="18" viewBox="0 0 18 18" fill="none" xmlns="http://www.w3.org/2000/svg">
<path d="M16.5 15.9375C16.5 16.245 16.245 16.5 15.9375 16.5H2.0625C1.755 16.5 1.5 16.245 1.5 15.9375C1.5 15.63 1.755 15.375 2.0625 15.375H15.9375C16.245 15.375 16.5 15.63 16.5 15.9375Z" fill="#292D32"/>
<path d="M11.5426 3.39031L3.48758 11.4453C3.18008 11.7528 2.68508 11.7528 2.38508 11.4453H2.37758C1.33508 10.3953 1.33508 8.70031 2.37758 7.65781L7.74008 2.29531C8.79008 1.24531 10.4851 1.24531 11.5351 2.29531C11.8426 2.58781 11.8426 3.09031 11.5426 3.39031Z" fill="#292D32"/>
<path d="M15.6151 6.36773L13.3276 4.08023C13.0201 3.77273 12.5251 3.77273 12.2251 4.08023L4.17008 12.1352C3.86258 12.4352 3.86258 12.9302 4.17008 13.2377L6.45758 15.5327C7.50758 16.5752 9.20258 16.5752 10.2526 15.5327L15.6076 10.1702C16.6726 9.12023 16.6726 7.41773 15.6151 6.36773ZM9.57008 13.1402L8.66258 14.0552C8.47508 14.2427 8.16758 14.2427 7.97258 14.0552C7.78508 13.8677 7.78508 13.5602 7.97258 13.3652L8.88758 12.4502C9.06758 12.2702 9.38258 12.2702 9.57008 12.4502C9.75758 12.6377 9.75758 12.9602 9.57008 13.1402ZM12.5476 10.1627L10.7176 12.0002C10.5301 12.1802 10.2226 12.1802 10.0276 12.0002C9.84008 11.8127 9.84008 11.5052 10.0276 11.3102L11.8651 9.47273C12.0451 9.29273 12.3601 9.29273 12.5476 9.47273C12.7351 9.66773 12.7351 9.97523 12.5476 10.1627Z" fill="#292D32"/>
</svg>
