<svg width="20" height="21" viewBox="0 0 20 21" fill="none" xmlns="http://www.w3.org/2000/svg">
<path d="M1.66699 10.05V14.2166C1.66699 16.125 3.20866 17.6666 5.11699 17.6666H14.8753C16.7837 17.6666 18.3337 16.1166 18.3337 14.2083V10.05C18.3337 9.49163 17.8837 9.04163 17.3253 9.04163H2.67533C2.11699 9.04163 1.66699 9.49163 1.66699 10.05ZM6.66699 14.875H5.00033C4.65866 14.875 4.37533 14.5916 4.37533 14.25C4.37533 13.9083 4.65866 13.625 5.00033 13.625H6.66699C7.00866 13.625 7.29199 13.9083 7.29199 14.25C7.29199 14.5916 7.00866 14.875 6.66699 14.875ZM12.0837 14.875H8.75033C8.40866 14.875 8.12533 14.5916 8.12533 14.25C8.12533 13.9083 8.40866 13.625 8.75033 13.625H12.0837C12.4253 13.625 12.7087 13.9083 12.7087 14.25C12.7087 14.5916 12.4253 14.875 12.0837 14.875Z" fill="#B7B7B7"/>
<path d="M11.2503 4.34171V6.78337C11.2503 7.34171 10.8003 7.79171 10.242 7.79171H2.67533C2.10866 7.79171 1.66699 7.32504 1.66699 6.76671C1.67533 5.82504 2.05033 4.96671 2.67533 4.34171C3.30033 3.71671 4.16699 3.33337 5.11699 3.33337H10.242C10.8003 3.33337 11.2503 3.78337 11.2503 4.34171Z" fill="#B7B7B7"/>
<path d="M16.6417 2.16663H14.1917C13.1333 2.16663 12.5 2.79996 12.5 3.85829V6.30829C12.5 7.36663 13.1333 7.99996 14.1917 7.99996H16.6417C17.7 7.99996 18.3333 7.36663 18.3333 6.30829V3.85829C18.3333 2.79996 17.7 2.16663 16.6417 2.16663ZM17.1917 4.20829L15.2167 6.51663C15.1417 6.60829 15.025 6.66663 14.9083 6.66663C14.9 6.66663 14.9 6.66663 14.8917 6.66663C14.775 6.66663 14.6667 6.62496 14.5833 6.54163L13.6667 5.64163C13.5 5.47496 13.5 5.19996 13.6667 5.03329C13.8333 4.86663 14.1083 4.85829 14.275 5.03329L14.8583 5.60829L16.525 3.65829C16.6833 3.47496 16.95 3.45829 17.1333 3.60829C17.325 3.75829 17.3417 4.03329 17.1917 4.20829Z" fill="#B7B7B7"/>
</svg>
