<svg width="20" height="20" viewBox="0 0 20 20" fill="none" xmlns="http://www.w3.org/2000/svg">
<g clip-path="url(#clip0_547_1168)">
<path d="M14.7827 4.26428H0.884C0.396333 4.26428 0 4.66062 0 5.14828V19.7356L3.138 16.5976H14.7827C15.2703 16.5976 15.6667 16.2009 15.6667 15.7133V5.14828C15.6667 4.66062 15.2703 4.26428 14.7827 4.26428ZM3.33333 11.9256C2.598 11.9256 2 11.3276 2 10.5923C2 9.85695 2.598 9.25895 3.33333 9.25895C4.06867 9.25895 4.66667 9.85695 4.66667 10.5923C4.66667 11.3276 4.06867 11.9256 3.33333 11.9256ZM7.66667 11.9256C6.93133 11.9256 6.33333 11.3276 6.33333 10.5923C6.33333 9.85695 6.93133 9.25895 7.66667 9.25895C8.402 9.25895 9 9.85695 9 10.5923C9 11.3276 8.402 11.9256 7.66667 11.9256ZM12 11.9256C11.2647 11.9256 10.6667 11.3276 10.6667 10.5923C10.6667 9.85695 11.2647 9.25895 12 9.25895C12.7353 9.25895 13.3333 9.85695 13.3333 10.5923C13.3333 11.3276 12.7353 11.9256 12 11.9256Z" fill="white"/>
<path d="M19.1159 0.264282H4.21725C3.72959 0.264282 3.33325 0.660616 3.33325 1.14828V3.59762H14.7826C15.6376 3.59762 16.3333 4.29328 16.3333 5.14828V13.5923H19.9999V1.14828C19.9999 0.660616 19.6036 0.264282 19.1159 0.264282Z" fill="white"/>
</g>
<defs>
<clipPath id="clip0_547_1168">
<rect width="20" height="20" fill="white"/>
</clipPath>
</defs>
</svg>
