<svg width="32" height="24" viewBox="0 0 32 24" fill="none" xmlns="http://www.w3.org/2000/svg">
<path d="M7.27312 9.57114C6.91738 9.57114 6.57599 9.62565 6.2362 9.67535C6.34627 9.30341 6.45954 8.92505 6.6414 8.58517C6.82326 8.09138 7.10721 7.66333 7.38957 7.23206C7.62567 6.76553 8.04203 6.4497 8.34832 6.0505C8.66896 5.66252 9.10606 5.40441 9.45223 5.08216C9.79202 4.74549 10.2371 4.57715 10.5912 4.33988C10.9613 4.12665 11.2836 3.89098 11.6282 3.77876L12.488 3.42285L13.2441 3.10701L12.4704 0L11.5181 0.230861C11.2134 0.307815 10.8417 0.397595 10.419 0.505009C9.98664 0.58517 9.52561 0.804809 9.01194 1.00521C8.50465 1.23287 7.9176 1.38677 7.37202 1.7523C6.82325 2.1018 6.18994 2.39359 5.6316 2.86172C5.09081 3.34429 4.43835 3.76273 3.95659 4.37675C3.43015 4.9507 2.9101 5.55351 2.5065 6.23968C2.03909 6.89379 1.72164 7.61202 1.38664 8.32224C1.08354 9.03246 0.839465 9.75872 0.640059 10.4641C0.261984 11.8782 0.0928871 13.2216 0.0274818 14.3711C-0.0267568 15.5222 0.00514828 16.4794 0.0721489 17.1719C0.0960776 17.499 0.140745 17.8164 0.17265 18.0361L0.212531 18.3054L0.254007 18.2958C0.537741 19.6278 1.1909 20.8518 2.13794 21.8263C3.08498 22.8008 4.28719 23.486 5.6055 23.8025C6.92382 24.1191 8.30436 24.054 9.58743 23.615C10.8705 23.1759 12.0037 22.3808 12.8559 21.3215C13.7081 20.2622 14.2444 18.9822 14.403 17.6293C14.5615 16.2765 14.3357 14.9062 13.7516 13.677C13.1676 12.4478 12.2492 11.4098 11.1028 10.6832C9.95628 9.9566 8.62853 9.57105 7.27312 9.57114ZM24.8209 9.57114C24.4651 9.57114 24.1238 9.62565 23.784 9.67535C23.894 9.30341 24.0073 8.92505 24.1892 8.58517C24.371 8.09138 24.655 7.66333 24.9373 7.23206C25.1734 6.76553 25.5898 6.4497 25.8961 6.0505C26.2167 5.66252 26.6538 5.40441 27 5.08216C27.3398 4.74549 27.7849 4.57715 28.139 4.33988C28.5091 4.12665 28.8313 3.89098 29.1759 3.77876L30.0358 3.42285L30.7919 3.10701L30.0182 0L29.0658 0.230861C28.7612 0.307815 28.3895 0.397595 27.9667 0.505009C27.5344 0.58517 27.0734 0.804809 26.5597 1.00521C26.054 1.23447 25.4654 1.38677 24.9198 1.75391C24.371 2.10341 23.7377 2.39519 23.1794 2.86333C22.6386 3.34589 21.9861 3.76433 21.5044 4.37675C20.9779 4.9507 20.4579 5.55351 20.0543 6.23968C19.5869 6.89379 19.2694 7.61202 18.9344 8.32224C18.6313 9.03246 18.3872 9.75872 18.1878 10.4641C17.8098 11.8782 17.6407 13.2216 17.5753 14.3711C17.521 15.5222 17.5529 16.4794 17.6199 17.1719C17.6438 17.499 17.6885 17.8164 17.7204 18.0361L17.7603 18.3054L17.8018 18.2958C18.0855 19.6278 18.7387 20.8518 19.6857 21.8263C20.6327 22.8008 21.835 23.486 23.1533 23.8025C24.4716 24.1191 25.8521 24.054 27.1352 23.615C28.4183 23.1759 29.5515 22.3808 30.4036 21.3215C31.2558 20.2622 31.7922 18.9822 31.9507 17.6293C32.1093 16.2765 31.8834 14.9062 31.2994 13.677C30.7154 12.4478 29.797 11.4098 28.6505 10.6832C27.504 9.9566 26.1763 9.57105 24.8209 9.57114Z" fill="#3D6BD8"/>
</svg>
