<svg width="20" height="20" viewBox="0 0 20 20" fill="none" xmlns="http://www.w3.org/2000/svg">
<path d="M12.9165 10.9585H11.1082C9.62484 10.9585 8.4165 9.7585 8.4165 8.26683V6.4585C8.4165 6.11683 8.1415 5.8335 7.7915 5.8335H5.14984C3.22484 5.8335 1.6665 7.0835 1.6665 9.31683V14.8502C1.6665 17.0835 3.22484 18.3335 5.14984 18.3335H10.0582C11.9832 18.3335 13.5415 17.0835 13.5415 14.8502V11.5835C13.5415 11.2335 13.2582 10.9585 12.9165 10.9585Z" fill="white"/>
<path d="M14.8501 1.6665H13.2085H12.3001H9.9418C8.05846 1.6665 6.53346 2.8665 6.4668 5.00817C6.5168 5.00817 6.55846 4.99984 6.60846 4.99984H8.9668H9.87513H11.5168C13.4418 4.99984 15.0001 6.24984 15.0001 8.48317V10.1248V12.3832V14.0248C15.0001 14.0748 14.9918 14.1165 14.9918 14.1582C16.8501 14.0998 18.3335 12.8665 18.3335 10.6915V9.04984V6.7915V5.14984C18.3335 2.9165 16.7751 1.6665 14.8501 1.6665Z" fill="white"/>
<path d="M9.9832 5.95813C9.72487 5.69979 9.2832 5.87479 9.2832 6.23313V8.41646C9.2832 9.33313 10.0582 10.0831 11.0082 10.0831C11.5999 10.0915 12.4249 10.0915 13.1332 10.0915C13.4915 10.0915 13.6749 9.67479 13.4249 9.42479C12.5165 8.51646 10.8999 6.89146 9.9832 5.95813Z" fill="white"/>
</svg>
