<svg width="42" height="50" viewBox="0 0 42 50" fill="none" xmlns="http://www.w3.org/2000/svg">
<path d="M28.3227 16.6938L27.0896 15.4607C26.5535 14.9246 25.6778 14.9246 25.1417 15.4607L19.0033 21.5906L16.8856 19.4729C16.3495 18.9367 15.4738 18.9367 14.9377 19.4729L13.7046 20.7059C13.1685 21.2421 13.1685 22.1178 13.7046 22.6538L18.0294 26.9786C18.5655 27.5147 19.4412 27.5147 19.9773 26.9786L28.3232 18.6327C28.8593 18.0966 28.8593 17.2209 28.3232 16.6848L28.3227 16.6938Z" fill="#3D6BD8"/>
<path d="M40.0729 17.2924L37.9373 15.1568C37.1242 14.3437 36.6595 13.2357 36.6595 12.083V9.0539C36.6595 6.6592 34.7384 4.69339 32.299 4.69339H29.3056C28.153 4.69339 27.045 4.21982 26.2318 3.41561L24.0962 1.28002C22.3896 -0.426672 19.6553 -0.426672 17.9395 1.28002L15.8039 3.41561C14.9908 4.22875 13.8828 4.69339 12.7301 4.69339H9.70096C7.30626 4.69339 5.34046 6.61453 5.34046 9.0539V12.0473C5.34046 13.2 4.86688 14.308 4.06267 15.1211L1.92708 17.2567C0.220392 18.9634 0.220392 21.6976 1.92708 23.4134L4.06267 25.549C4.87581 26.3622 5.34046 27.4702 5.34046 28.6228V31.652C5.34046 34.0467 7.2616 36.0125 9.70096 36.0125H12.6944C13.847 36.0125 14.955 36.486 15.7682 37.2903L17.9038 39.4258C19.6104 41.1325 22.3447 41.1325 24.0605 39.4258L26.1961 37.2903C27.0092 36.4771 28.1172 36.0125 29.2699 36.0125H32.299C34.6937 36.0125 36.6595 34.0913 36.6595 31.652V28.6586C36.6595 27.5059 37.1331 26.3979 37.9373 25.5848L40.0729 23.4492C41.7796 21.7425 41.7796 18.9635 40.0729 17.2924ZM20.9959 32.7506C14.1426 32.7506 8.58462 27.1928 8.58462 20.3394C8.58462 13.486 14.1425 7.92806 20.9959 7.92806C27.8493 7.92806 33.4072 13.486 33.4072 20.3394C33.4072 27.1928 27.8493 32.7506 20.9959 32.7506Z" fill="#3D6BD8"/>
<path d="M29.2611 37.7905C28.591 37.7905 27.9298 38.0675 27.4472 38.55L25.3116 40.6856C24.1501 41.8472 22.6042 42.4906 20.969 42.4906C19.3338 42.4906 17.7969 41.8472 16.6263 40.6856L14.4907 38.55C14.0082 38.0675 13.347 37.7905 12.6768 37.7905H10.845V48.4325C10.845 49.6745 12.2301 50.4251 13.2666 49.737L20.996 44.6348L28.7071 49.737C29.7436 50.425 31.1375 49.6834 31.1375 48.4325V37.7905H29.2521H29.2611Z" fill="#3D6BD8"/>
</svg>
