<svg width="54" height="50" viewBox="0 0 54 50" fill="none" xmlns="http://www.w3.org/2000/svg">
<path fill-rule="evenodd" clip-rule="evenodd" d="M2.22075 48.8237C3.16714 49.5826 4.34799 50 5.57118 50H48.428C49.6512 50 50.832 49.5826 51.7785 48.8237L33.2386 33.9912L29.6583 36.6429C28.0802 37.8126 25.9217 37.8126 24.3436 36.6429L20.7633 33.9912L2.22338 48.8237H2.22075ZM19.2789 32.8906L0.214478 18.7702V44.6425C0.214478 45.6559 0.502424 46.6425 1.03144 47.4863L19.277 32.8904L19.2789 32.8906ZM53.7855 18.7702L34.7211 32.8906L52.9667 47.4865C53.4979 46.6428 53.7837 45.6562 53.7837 44.6428V18.7704L53.7855 18.7702ZM14.5001 0C13.5537 0 12.6452 0.377232 11.9755 1.04685C11.3059 1.71647 10.9287 2.62495 10.9287 3.5714V24.4775C10.9287 24.4775 21.308 32.1649 24.8749 34.8078C26.1382 35.743 27.8615 35.743 29.1248 34.8078C32.6918 32.1649 43.071 24.4775 43.071 24.4775V3.5714C43.071 2.62501 42.6938 1.7165 42.0242 1.04685C41.3546 0.377198 40.4461 0 39.4996 0H14.5001ZM44.857 10.7142V23.1604L53.7855 16.549V16.0714C53.7855 14.6495 53.2208 13.2879 52.2164 12.2834C51.2119 11.279 49.8503 10.7142 48.4284 10.7142L44.857 10.7142ZM9.14299 10.7142H5.57158C4.14971 10.7142 2.78812 11.2789 1.78367 12.2834C0.779217 13.2879 0.214478 14.6494 0.214478 16.0713V16.549L9.14299 23.1604V10.7142ZM20.3795 17.3347L24.8437 21.799C25.5402 22.4977 26.6718 22.4977 27.3683 21.799L35.4037 13.7636C36.1001 13.0672 36.1001 11.9355 35.4037 11.2391C34.7072 10.5426 33.5756 10.5426 32.8791 11.2391L26.1066 18.0116L22.9057 14.8107C22.2092 14.1142 21.0776 14.1142 20.3811 14.8107C19.6847 15.5071 19.6847 16.6388 20.3811 17.3353L20.3795 17.3347Z" fill="#3D6BD8"/>
</svg>
