<svg width="62" height="50" viewBox="0 0 62 50" fill="none" xmlns="http://www.w3.org/2000/svg">
<path fill-rule="evenodd" clip-rule="evenodd" d="M25.489 47.5888C25.0233 47.6156 24.5548 47.6297 24.0827 47.6297C10.9659 47.6297 0.267883 36.9316 0.267883 23.8148C0.267883 10.6973 10.9659 0 24.0827 0C32.2788 0 39.5301 4.17635 43.8179 10.5097L40.4544 15.0945C37.3343 9.24808 31.1745 5.27 24.0827 5.27C13.8384 5.27 5.53859 13.5705 5.53859 23.8148C5.53859 34.0585 13.8384 42.359 24.0827 42.359C30.6369 42.359 36.3959 38.9609 39.6938 33.8306C38.2318 38.9016 34.8471 43.6523 27.0455 45.6562C26.2235 45.8671 25.6124 46.5579 25.5045 47.3997C25.496 47.4632 25.4911 47.526 25.489 47.5888ZM22.7866 16.7999C22.7866 16.0845 23.3673 15.5038 24.0827 15.5038C24.7982 15.5038 25.3789 16.0845 25.3789 16.7999V23.0662L29.4176 25.3975C30.0371 25.7552 30.2502 26.5483 29.8925 27.1678C29.5348 27.7873 28.7417 28.0004 28.1222 27.6426L23.435 24.9367C23.0335 24.7053 22.7866 24.2777 22.7866 23.8148V16.7999ZM22.7866 9.05052C22.7866 8.33505 23.3673 7.75436 24.0827 7.75436C24.7982 7.75436 25.3789 8.33505 25.3789 9.05052V10.6487C25.3789 11.3641 24.7982 11.9448 24.0827 11.9448C23.3673 11.9448 22.7866 11.3641 22.7866 10.6487V9.05052ZM33.6102 12.4543C34.1161 11.9483 34.9374 11.9483 35.4433 12.4543C35.9485 12.9602 35.9485 13.7815 35.4433 14.2866L34.3087 15.4212C33.8036 15.9264 32.9823 15.9264 32.4763 15.4212C31.9704 14.9153 31.9704 14.094 32.4763 13.5881L33.6102 12.4543ZM35.4433 33.3423C35.9485 33.8482 35.9485 34.6695 35.4433 35.1747C34.9374 35.6806 34.1161 35.6806 33.6102 35.1747L32.4763 34.0409C31.9704 33.535 31.9704 32.7137 32.4763 32.2085C32.9823 31.7026 33.8036 31.7026 34.3087 32.2085L35.4433 33.3423ZM14.5552 35.1747C14.0493 35.6806 13.228 35.6806 12.7221 35.1747C12.2169 34.6695 12.2169 33.8482 12.7221 33.3423L13.8567 32.2085C14.3619 31.7026 15.1832 31.7026 15.6891 32.2085C16.195 32.7137 16.195 33.535 15.6891 34.0409L14.5552 35.1747ZM12.7221 14.2866C12.2169 13.7815 12.2169 12.9602 12.7221 12.4543C13.228 11.9483 14.0493 11.9483 14.5552 12.4543L15.6891 13.5881C16.195 14.094 16.195 14.9153 15.6891 15.4212C15.1832 15.9264 14.3619 15.9264 13.8567 15.4212L12.7221 14.2866ZM25.3789 38.5792C25.3789 39.2939 24.7982 39.8746 24.0827 39.8746C23.3673 39.8746 22.7866 39.2939 22.7866 38.5792V36.9803C22.7866 36.2649 23.3673 35.6842 24.0827 35.6842C24.7982 35.6842 25.3789 36.2649 25.3789 36.9803V38.5792ZM9.3184 25.1103C8.60364 25.1103 8.02295 24.5296 8.02295 23.8148C8.02295 23.0994 8.60364 22.5187 9.3184 22.5187H10.9173C11.632 22.5187 12.2127 23.0994 12.2127 23.8148C12.2127 24.5296 11.632 25.1103 10.9173 25.1103H9.3184ZM42.8647 23.8297H37.8959C37.6518 23.8297 37.4281 23.6928 37.3181 23.4748C37.2073 23.2567 37.2292 22.9957 37.3738 22.7988L48.0098 8.30189C48.1742 8.07681 48.4331 7.94063 48.7118 7.93146C48.9905 7.92299 49.2579 8.04224 49.4364 8.25603L61.581 22.7663C61.7425 22.959 61.7778 23.2285 61.6713 23.4564C61.5647 23.6843 61.3354 23.8297 61.0842 23.8297H56.4648C56.4648 46.8056 39.5738 54.3384 27.5613 47.6643C41.9382 43.9727 42.8647 31.9171 42.8647 23.8297Z" fill="#3D6BD8"/>
</svg>
