<svg width="64" height="50" viewBox="0 0 64 50" fill="none" xmlns="http://www.w3.org/2000/svg">
<path d="M31.9987 40.3203C36.273 40.3506 40.366 38.593 43.2878 35.4743C46.213 32.3586 47.7013 28.1599 47.3958 23.8978C47.0903 19.6326 45.0181 15.6908 41.6786 13.023C37.9972 10.1009 33.1904 9.00882 28.6106 10.0525C23.816 11.1536 19.8413 14.4902 17.9262 19.0184C16.0084 23.5499 16.3835 28.7224 18.9306 32.9305L18.1894 36.739C17.7206 38.9291 18.625 41.1887 20.4793 42.4502C21.417 43.1278 22.5484 43.4908 23.707 43.4817C24.7295 43.4847 25.7338 43.2064 26.611 42.674L30.7099 40.2207L30.7069 40.2237C31.1364 40.2872 31.5661 40.3173 31.9987 40.3203ZM25.5464 27.4127C24.5663 27.4127 23.683 26.8228 23.3109 25.9183C22.9358 25.0138 23.1415 23.9733 23.8343 23.2806C24.527 22.5909 25.5676 22.3821 26.472 22.7573C27.3764 23.1324 27.9664 24.0126 27.9664 24.9927C27.9482 26.3206 26.8743 27.3946 25.5464 27.4127ZM38.451 22.5727C39.4311 22.5727 40.3144 23.1626 40.6865 24.0671C41.0616 24.9715 40.8559 26.0121 40.1632 26.7048C39.4704 27.3945 38.4298 27.6033 37.5254 27.2281C36.621 26.853 36.031 25.9728 36.031 24.9927C36.0492 23.6647 37.1231 22.5908 38.451 22.5727ZM29.5787 24.9927C29.5787 24.0126 30.1685 23.1324 31.073 22.7572C31.9775 22.3821 33.0181 22.5909 33.7108 23.2806C34.4005 23.9733 34.6092 25.0139 34.2341 25.9183C33.859 26.8228 32.9787 27.4127 31.9987 27.4127C30.6707 27.3945 29.5968 26.3206 29.5787 24.9927ZM63.4586 21.765V28.2203C63.4586 33.1208 59.4868 37.0926 54.5863 37.0926H53.0678C51.7367 40.8647 49.2684 44.1287 46.0014 46.4396C42.7375 48.7507 38.8382 49.9939 34.8392 50H31.9987C30.6617 50 29.5788 48.9141 29.5788 47.58C29.5788 46.2429 30.6617 45.16 31.9987 45.16H34.8392C38.0609 45.163 41.1947 44.0982 43.7448 42.1289C46.2979 40.1627 48.125 37.4039 48.9387 34.2851V15.8931L48.5182 15.0219C46.4582 10.917 42.9402 7.72866 38.657 6.07377C34.3737 4.41912 29.6245 4.41912 25.3413 6.07377C21.0579 7.72843 17.54 10.9168 15.4801 15.0219L15.0596 15.8931V34.6723C15.0415 36.0002 13.9676 37.0741 12.6396 37.0923H9.41194C4.51148 37.0923 0.539673 33.1205 0.539673 28.22V21.7647C0.539673 16.8642 4.51148 12.8924 9.41194 12.8924H11.1543C13.7468 7.70156 18.1814 3.66315 23.5904 1.56996C29.0021 -0.523318 34.9973 -0.523318 40.4095 1.56996C45.8182 3.66323 50.2529 7.70163 52.8456 12.8924H54.588C59.4884 12.8924 63.4602 16.8642 63.4602 21.7647L63.4586 21.765Z" fill="#3D6BD8"/>
</svg>
