<svg width="40" height="40" viewBox="0 0 40 40" fill="none" xmlns="http://www.w3.org/2000/svg">
<path d="M3.33337 16.25C2.65004 16.25 2.08337 15.6834 2.08337 15V10.8334C2.08337 6.00004 6.01671 2.08337 10.8334 2.08337H15C15.6834 2.08337 16.25 2.65004 16.25 3.33337C16.25 4.01671 15.6834 4.58337 15 4.58337H10.8334C7.38337 4.58337 4.58337 7.38337 4.58337 10.8334V15C4.58337 15.6834 4.01671 16.25 3.33337 16.25Z" fill="#3D6BD8"/>
<path d="M36.6667 16.25C35.9833 16.25 35.4167 15.6834 35.4167 15V10.8334C35.4167 7.38337 32.6167 4.58337 29.1667 4.58337H25C24.3167 4.58337 23.75 4.01671 23.75 3.33337C23.75 2.65004 24.3167 2.08337 25 2.08337H29.1667C33.9833 2.08337 37.9167 6.00004 37.9167 10.8334V15C37.9167 15.6834 37.35 16.25 36.6667 16.25Z" fill="#3D6BD8"/>
<path d="M29.1666 37.9166H26.6666C25.9833 37.9166 25.4166 37.35 25.4166 36.6666C25.4166 35.9833 25.9833 35.4166 26.6666 35.4166H29.1666C32.6166 35.4166 35.4166 32.6166 35.4166 29.1666V26.6666C35.4166 25.9833 35.9833 25.4166 36.6666 25.4166C37.35 25.4166 37.9166 25.9833 37.9166 26.6666V29.1666C37.9166 34 33.9833 37.9166 29.1666 37.9166Z" fill="#3D6BD8"/>
<path d="M15 37.9167H10.8334C6.01671 37.9167 2.08337 34 2.08337 29.1667V25C2.08337 24.3167 2.65004 23.75 3.33337 23.75C4.01671 23.75 4.58337 24.3167 4.58337 25V29.1667C4.58337 32.6167 7.38337 35.4167 10.8334 35.4167H15C15.6834 35.4167 16.25 35.9833 16.25 36.6667C16.25 37.35 15.6834 37.9167 15 37.9167Z" fill="#3D6BD8"/>
<path d="M14.1667 18.9667C16.8177 18.9667 18.9667 16.8177 18.9667 14.1667C18.9667 11.5157 16.8177 9.3667 14.1667 9.3667C11.5157 9.3667 9.3667 11.5157 9.3667 14.1667C9.3667 16.8177 11.5157 18.9667 14.1667 18.9667Z" fill="#3D6BD8"/>
<path d="M12.5 30.6334C14.2305 30.6334 15.6334 29.2305 15.6334 27.5C15.6334 25.7695 14.2305 24.3667 12.5 24.3667C10.7695 24.3667 9.3667 25.7695 9.3667 27.5C9.3667 29.2305 10.7695 30.6334 12.5 30.6334Z" fill="#3D6BD8"/>
<path d="M27.5 15.6334C29.2305 15.6334 30.6334 14.2305 30.6334 12.5C30.6334 10.7695 29.2305 9.3667 27.5 9.3667C25.7695 9.3667 24.3667 10.7695 24.3667 12.5C24.3667 14.2305 25.7695 15.6334 27.5 15.6334Z" fill="#3D6BD8"/>
<path d="M25.8333 30.6333C28.4843 30.6333 30.6333 28.4843 30.6333 25.8333C30.6333 23.1824 28.4843 21.0333 25.8333 21.0333C23.1824 21.0333 21.0333 23.1824 21.0333 25.8333C21.0333 28.4843 23.1824 30.6333 25.8333 30.6333Z" fill="#3D6BD8"/>
</svg>
