<svg width="18" height="18" viewBox="0 0 18 18" fill="none" xmlns="http://www.w3.org/2000/svg">
<path d="M9 1.5C4.86 1.5 1.5 4.86 1.5 9C1.5 13.14 4.86 16.5 9 16.5C13.14 16.5 16.5 13.14 16.5 9C16.5 4.86 13.14 1.5 9 1.5ZM8.1975 12.8625C8.1975 12.9375 8.1825 13.005 8.1525 13.08C8.0925 13.215 7.9875 13.3275 7.845 13.3875C7.7775 13.4175 7.7025 13.4325 7.6275 13.4325C7.5525 13.4325 7.485 13.4175 7.41 13.3875C7.3425 13.3575 7.2825 13.32 7.23 13.2675L4.95 10.9875C4.7325 10.77 4.7325 10.41 4.95 10.1925C5.1675 9.975 5.5275 9.975 5.745 10.1925L7.065 11.5125V5.1375C7.065 4.83 7.32 4.575 7.6275 4.575C7.935 4.575 8.19 4.83 8.19 5.1375V12.8625H8.1975ZM13.0425 7.815C12.93 7.9275 12.7875 7.98 12.645 7.98C12.5025 7.98 12.36 7.9275 12.2475 7.815L10.9275 6.495V12.87C10.9275 13.1775 10.6725 13.4325 10.365 13.4325C10.0575 13.4325 9.8025 13.1775 9.8025 12.87V5.1375C9.8025 5.0625 9.8175 4.995 9.8475 4.92C9.9075 4.785 10.0125 4.6725 10.155 4.6125C10.29 4.5525 10.4475 4.5525 10.5825 4.6125C10.65 4.6425 10.71 4.68 10.7625 4.7325L13.0425 7.0125C13.26 7.2375 13.26 7.59 13.0425 7.815Z" fill="#292D32"/>
</svg>
