<svg width="162" height="30" viewBox="0 0 162 30" fill="none" xmlns="http://www.w3.org/2000/svg">
<path d="M21.964 2.4V7.758H14.364V29H8.36V7.758H0.76V2.4H21.964ZM34.3084 9.696C34.9164 9.696 35.8664 9.696 36.6264 10V15.358C35.7524 15.054 35.1824 14.978 34.1184 14.978C31.4584 14.978 29.0644 16.346 29.0644 21.514V29H23.2884V10H29.0644V15.396C29.4824 12.622 30.7364 9.696 34.3084 9.696ZM52.3411 10H58.1171V29H52.3411V24.706C51.4291 27.822 49.4531 29.38 46.3371 29.38C41.8151 29.38 39.6491 26.682 39.6491 21.096V10H45.4251V20.754C45.4251 23.072 46.4891 24.136 48.6171 24.136C50.8971 24.136 52.3411 22.654 52.3411 19.234V10ZM80.7776 19.348C80.7776 19.994 80.7776 20.488 80.7396 21.324H67.8196C68.1616 23.908 69.3776 24.972 71.8096 24.972C73.6336 24.972 74.5076 24.402 75.4196 22.578L80.3596 24.326C79.0676 27.594 76.2176 29.38 71.6576 29.38C65.7676 29.38 61.8156 25.504 61.8156 19.652C61.8156 13.648 65.6916 9.62 71.4676 9.62C77.0536 9.62 80.7776 13.496 80.7776 19.348ZM71.5816 13.838C69.2636 13.838 68.1236 14.902 67.8196 17.562H75.0776C75.0396 14.788 73.8996 13.838 71.5816 13.838ZM109.334 9.62C113.628 9.62 115.642 12.28 115.642 17.904V29H109.866V18.246C109.866 16.08 108.84 14.864 106.674 14.864C104.394 14.864 102.95 16.308 102.95 20.526V29H97.1737V18.246C97.1737 15.928 96.1097 14.864 93.9817 14.864C91.7017 14.864 90.2577 16.346 90.2577 19.766V29H84.4817V10H90.2577V14.294C91.1697 11.178 93.1457 9.62 96.2617 9.62C99.6437 9.62 101.734 11.14 102.532 14.256C103.786 11.064 106.142 9.62 109.334 9.62ZM133.856 10H139.632V29H133.856V24.744C132.792 27.746 130.626 29.38 127.586 29.38C122.152 29.38 119.15 25.428 119.15 19.538C119.15 13.572 122 9.62 127.206 9.62C130.436 9.62 132.754 11.292 133.856 14.408V10ZM129.41 24.136C132.564 24.136 134.046 22.654 134.046 19.538C134.046 16.346 132.564 14.864 129.41 14.864C126.37 14.864 124.926 16.346 124.926 19.538C124.926 22.654 126.37 24.136 129.41 24.136ZM147.412 7.53C145.094 7.53 143.802 6.276 143.802 3.996C143.802 1.792 145.094 0.575999 147.412 0.575999C149.768 0.575999 151.098 1.792 151.098 3.996C151.098 6.276 149.768 7.53 147.412 7.53ZM144.562 29V10H150.338V29H144.562ZM155.286 29V2.4H161.062V29H155.286Z" fill="#0F162E"/>
</svg>
