<svg width="20" height="20" viewBox="0 0 20 20" fill="none" xmlns="http://www.w3.org/2000/svg">
<path d="M16.2503 6.66667C17.4009 6.66667 18.3337 5.73393 18.3337 4.58333C18.3337 3.43274 17.4009 2.5 16.2503 2.5C15.0997 2.5 14.167 3.43274 14.167 4.58333C14.167 5.73393 15.0997 6.66667 16.2503 6.66667Z" fill="white"/>
<path d="M16.2503 6.66667C17.4009 6.66667 18.3337 5.73393 18.3337 4.58333C18.3337 3.43274 17.4009 2.5 16.2503 2.5C15.0997 2.5 14.167 3.43274 14.167 4.58333C14.167 5.73393 15.0997 6.66667 16.2503 6.66667Z" fill="white"/>
<path d="M17.267 7.75866C16.6837 7.94199 16.042 7.97533 15.3753 7.80866C14.2587 7.51699 13.3503 6.62533 13.042 5.50866C12.892 4.96699 12.8837 4.43366 12.9753 3.95033C13.0837 3.41699 12.7087 2.91699 12.1753 2.91699H5.83366C3.33366 2.91699 1.66699 4.16699 1.66699 7.08366V12.917C1.66699 15.8337 3.33366 17.0837 5.83366 17.0837H14.167C16.667 17.0837 18.3337 15.8337 18.3337 12.917V8.55033C18.3337 8.00033 17.8003 7.58366 17.267 7.75866ZM12.9337 9.29199L11.9503 10.0753C11.4003 10.517 10.7003 10.7337 10.0003 10.7337C9.30033 10.7337 8.59199 10.517 8.05033 10.0753L5.44199 7.99199C5.17533 7.77533 5.13366 7.37533 5.34199 7.10866C5.55866 6.84199 5.95033 6.79199 6.21699 7.00866L8.82533 9.09199C9.45866 9.60033 10.5337 9.60033 11.167 9.09199L12.1503 8.30866C12.417 8.09199 12.817 8.13366 13.0253 8.40866C13.242 8.67533 13.2003 9.07533 12.9337 9.29199Z" fill="white"/>
</svg>
