<svg width="20" height="20" viewBox="0 0 20 20" fill="none" xmlns="http://www.w3.org/2000/svg">
<path d="M16.2501 6.66667C17.4007 6.66667 18.3334 5.73393 18.3334 4.58333C18.3334 3.43274 17.4007 2.5 16.2501 2.5C15.0995 2.5 14.1667 3.43274 14.1667 4.58333C14.1667 5.73393 15.0995 6.66667 16.2501 6.66667Z" fill="white"/>
<path d="M16.2501 6.66667C17.4007 6.66667 18.3334 5.73393 18.3334 4.58333C18.3334 3.43274 17.4007 2.5 16.2501 2.5C15.0995 2.5 14.1667 3.43274 14.1667 4.58333C14.1667 5.73393 15.0995 6.66667 16.2501 6.66667Z" fill="white"/>
<path d="M17.2667 7.75829C16.6834 7.94163 16.0417 7.97496 15.3751 7.80829C14.2584 7.51663 13.3501 6.62496 13.0417 5.50829C12.8917 4.96663 12.8834 4.43329 12.9751 3.94996C13.0834 3.41663 12.7084 2.91663 12.1751 2.91663H5.83341C3.33341 2.91663 1.66675 4.16663 1.66675 7.08329V12.9166C1.66675 15.8333 3.33341 17.0833 5.83341 17.0833H14.1667C16.6667 17.0833 18.3334 15.8333 18.3334 12.9166V8.54996C18.3334 7.99996 17.8001 7.58329 17.2667 7.75829ZM12.9334 9.29163L11.9501 10.075C11.4001 10.5166 10.7001 10.7333 10.0001 10.7333C9.30008 10.7333 8.59175 10.5166 8.05008 10.075L5.44175 7.99163C5.17508 7.77496 5.13341 7.37496 5.34175 7.10829C5.55841 6.84163 5.95008 6.79163 6.21675 7.00829L8.82508 9.09163C9.45841 9.59996 10.5334 9.59996 11.1667 9.09163L12.1501 8.30829C12.4167 8.09163 12.8167 8.13329 13.0251 8.40829C13.2417 8.67496 13.2001 9.07496 12.9334 9.29163Z" fill="white"/>
</svg>
