<svg width="40" height="40" viewBox="0 0 40 40" fill="none" xmlns="http://www.w3.org/2000/svg">
<path d="M10.0003 21.6665C5.40033 21.6665 1.66699 25.3832 1.66699 29.9998C1.66699 34.6165 5.40033 38.3332 10.0003 38.3332C14.6003 38.3332 18.3337 34.5998 18.3337 29.9998C18.3337 25.3998 14.617 21.6665 10.0003 21.6665ZM6.60033 26.5998H10.0003C10.6337 26.5998 11.1337 27.1165 11.1337 27.7332C11.1337 28.3498 10.6337 28.8665 10.0003 28.8665H6.60033C5.96699 28.8665 5.46699 28.3498 5.46699 27.7332C5.46699 27.1165 5.96699 26.5998 6.60033 26.5998ZM13.4003 33.3998H6.60033C5.96699 33.3998 5.46699 32.8832 5.46699 32.2665C5.46699 31.6498 5.98366 31.1332 6.60033 31.1332H13.417C14.0503 31.1332 14.5503 31.6498 14.5503 32.2665C14.5503 32.8832 14.0337 33.3998 13.4003 33.3998Z" fill="#3D6BD8"/>
<path d="M28.333 5H11.6663C6.66634 5 3.33301 7.5 3.33301 13.3333V18.5667C3.33301 19.7833 4.58301 20.55 5.69967 20.0667C7.53301 19.2667 9.61634 18.9667 11.7997 19.3167C16.1663 20.0333 19.733 23.4833 20.6163 27.8167C20.8663 29.0833 20.8997 30.3167 20.733 31.5C20.5997 32.4833 21.3997 33.35 22.383 33.35H28.333C33.333 33.35 36.6663 30.85 36.6663 25.0167V13.3333C36.6663 7.5 33.333 5 28.333 5ZM29.1163 14.3167L23.8997 18.4833C22.7997 19.3667 21.3997 19.8 19.9997 19.8C18.5997 19.8 17.183 19.3667 16.0997 18.4833L10.883 14.3167C10.3497 13.8833 10.2663 13.0833 10.683 12.55C11.1163 12.0167 11.8997 11.9167 12.433 12.35L17.6497 16.5167C18.9163 17.5333 21.0663 17.5333 22.333 16.5167L27.5497 12.35C28.083 11.9167 28.883 12 29.2997 12.55C29.733 13.0833 29.6497 13.8833 29.1163 14.3167Z" fill="#3D6BD8"/>
</svg>
