<svg width="20" height="20" viewBox="0 0 20 20" fill="none" xmlns="http://www.w3.org/2000/svg">
<path d="M17.5498 9.85L17.4165 9.66667C17.1832 9.38333 16.9082 9.15833 16.5915 8.99167C16.1665 8.75 15.6832 8.625 15.1832 8.625H4.80817C4.30817 8.625 3.83317 8.75 3.39984 8.99167C3.07484 9.16667 2.78317 9.40833 2.54151 9.70833C2.06651 10.3167 1.84151 11.0667 1.91651 11.8167L2.22484 15.7083C2.33317 16.8833 2.47484 18.3333 5.11651 18.3333H14.8832C17.5248 18.3333 17.6582 16.8833 17.7748 15.7L18.0832 11.825C18.1582 11.125 17.9748 10.425 17.5498 9.85ZM11.9915 14.45H7.99984C7.67484 14.45 7.41651 14.1833 7.41651 13.8667C7.41651 13.55 7.67484 13.2833 7.99984 13.2833H11.9915C12.3165 13.2833 12.5748 13.55 12.5748 13.8667C12.5748 14.1917 12.3165 14.45 11.9915 14.45Z" fill="#3D6BD8"/>
<path d="M17.1189 7.01916C17.1643 7.40116 16.7471 7.66001 16.3782 7.5511C15.9989 7.43915 15.6024 7.38317 15.1919 7.38317H4.80856C4.39289 7.38317 3.98296 7.44343 3.59561 7.55891C3.23127 7.66753 2.81689 7.41824 2.81689 7.03806V5.54984C2.81689 2.57484 3.72523 1.6665 6.70023 1.6665H7.68356C8.87523 1.6665 9.25023 2.04984 9.73356 2.67484L10.7336 4.00817C10.9419 4.2915 10.9502 4.30817 11.3169 4.30817H13.3002C15.846 4.30817 16.8758 4.97462 17.1189 7.01916Z" fill="#3D6BD8"/>
</svg>
