<svg width="30" height="30" viewBox="0 0 30 30" fill="none" xmlns="http://www.w3.org/2000/svg">
<path fill-rule="evenodd" clip-rule="evenodd" d="M10.7538 4.74875C11.2812 4.14029 11.9334 3.65245 12.6661 3.31835C13.3988 2.98426 14.1948 2.81174 15 2.8125C16.6963 2.8125 18.2163 3.5625 19.2463 4.74875C20.0496 4.69139 20.8559 4.80761 21.6104 5.08951C22.3649 5.37141 23.0498 5.81239 23.6188 6.3825C24.1886 6.95133 24.6295 7.63609 24.9114 8.39032C25.1933 9.14455 25.3096 9.95059 25.2525 10.7538C25.8607 11.2813 26.3483 11.9336 26.6822 12.6662C27.0161 13.3989 27.1884 14.1948 27.1875 15C27.1883 15.8053 27.0157 16.6012 26.6817 17.3339C26.3476 18.0666 25.8597 18.7188 25.2513 19.2463C25.3084 20.0494 25.192 20.8555 24.9101 21.6097C24.6282 22.3639 24.1874 23.0487 23.6175 23.6175C23.0487 24.1874 22.3639 24.6282 21.6097 24.9101C20.8555 25.192 20.0494 25.3083 19.2463 25.2513C18.7188 25.8597 18.0666 26.3476 17.3339 26.6817C16.6012 27.0157 15.8053 27.1883 15 27.1875C14.1948 27.1883 13.3988 27.0157 12.6661 26.6817C11.9334 26.3476 11.2812 25.8597 10.7538 25.2513C9.95048 25.3088 9.14423 25.1928 8.38976 24.9111C7.63529 24.6294 6.95028 24.1886 6.38125 23.6188C5.81121 23.0498 5.37027 22.3648 5.08838 21.6104C4.80648 20.8559 4.69022 20.0496 4.7475 19.2463C4.13927 18.7187 3.65166 18.0664 3.31778 17.3338C2.98391 16.6011 2.81158 15.8052 2.8125 15C2.8125 13.3038 3.5625 11.7838 4.74875 10.7538C4.69157 9.95059 4.80788 9.14452 5.08978 8.39028C5.37167 7.63604 5.81256 6.95128 6.3825 6.3825C6.95128 5.81256 7.63604 5.37167 8.39028 5.08978C9.14452 4.80788 9.95059 4.69157 10.7538 4.74875ZM19.5125 12.7325C19.5875 12.6326 19.6418 12.5186 19.6721 12.3974C19.7025 12.2762 19.7083 12.1502 19.6892 12.0267C19.6701 11.9032 19.6266 11.7848 19.5611 11.6784C19.4956 11.572 19.4095 11.4797 19.3078 11.4071C19.2062 11.3344 19.091 11.2828 18.9691 11.2553C18.8473 11.2278 18.7211 11.2249 18.5981 11.2468C18.4751 11.2688 18.3577 11.3151 18.2529 11.383C18.148 11.451 18.0578 11.5392 17.9875 11.6425L13.9425 17.305L11.9125 15.275C11.7348 15.1094 11.4997 15.0192 11.2569 15.0235C11.014 15.0278 10.7822 15.1262 10.6105 15.298C10.4387 15.4697 10.3403 15.7015 10.336 15.9443C10.3317 16.1872 10.4219 16.4223 10.5875 16.6L13.4 19.4125C13.4962 19.5087 13.6123 19.5827 13.74 19.6296C13.8677 19.6764 14.0041 19.6948 14.1397 19.6837C14.2753 19.6725 14.4068 19.6319 14.5252 19.5648C14.6435 19.4977 14.7458 19.4056 14.825 19.295L19.5125 12.7325Z" fill="#3D6BD8"/>
</svg>
