<svg width="592" height="521" viewBox="0 0 592 521" fill="none" xmlns="http://www.w3.org/2000/svg">
<g filter="url(#filter0_d_405_1245)">
<rect x="40" y="20" width="444.03" height="441.418" rx="31.3433" fill="white"/>
</g>
<path d="M99.555 98.5C98.0749 98.5 96.8038 98.2475 95.7416 97.7425C94.6968 97.2375 93.7478 96.4801 92.8946 95.4701L95.2453 93.1194C95.7851 93.8333 96.412 94.3905 97.1259 94.791C97.8398 95.1741 98.7105 95.3656 99.7378 95.3656C100.661 95.3656 101.392 95.1828 101.932 94.8171C102.489 94.4515 102.768 93.9465 102.768 93.3022C102.768 92.745 102.611 92.2923 102.298 91.944C101.984 91.5957 101.566 91.2997 101.044 91.0559C100.539 90.8122 99.9729 90.5945 99.346 90.4029C98.7366 90.194 98.1184 89.9589 97.4916 89.6977C96.8821 89.4365 96.3162 89.1144 95.7938 88.7313C95.2888 88.3308 94.8796 87.8258 94.5662 87.2164C94.2528 86.5895 94.096 85.8059 94.096 84.8656C94.096 83.7512 94.3659 82.8022 94.9057 82.0186C95.4455 81.235 96.1856 80.6343 97.1259 80.2164C98.0662 79.7985 99.1284 79.5895 100.312 79.5895C101.566 79.5895 102.698 79.8246 103.708 80.2947C104.718 80.7649 105.545 81.3743 106.189 82.1231L103.839 84.4738C103.299 83.8818 102.742 83.4465 102.167 83.1679C101.61 82.8893 100.974 82.75 100.26 82.75C99.4418 82.75 98.7975 82.9067 98.3274 83.2201C97.8572 83.5335 97.6222 83.9863 97.6222 84.5783C97.6222 85.0833 97.7789 85.4925 98.0923 85.8059C98.4057 86.1194 98.8149 86.3893 99.3199 86.6156C99.8423 86.842 100.408 87.0597 101.018 87.2686C101.645 87.4776 102.263 87.7126 102.872 87.9738C103.499 88.235 104.065 88.5746 104.57 88.9925C105.092 89.4104 105.51 89.9502 105.824 90.6119C106.137 91.2562 106.294 92.0572 106.294 93.0149C106.294 94.7214 105.693 96.0622 104.492 97.0373C103.29 98.0124 101.645 98.5 99.555 98.5ZM108.732 98.2388V85.6231H112.179V98.2388H108.732ZM110.456 83.5858C109.898 83.5858 109.437 83.4029 109.071 83.0373C108.706 82.6542 108.523 82.184 108.523 81.6268C108.523 81.087 108.706 80.6256 109.071 80.2425C109.437 79.8594 109.898 79.6679 110.456 79.6679C111.03 79.6679 111.492 79.8594 111.84 80.2425C112.206 80.6256 112.388 81.087 112.388 81.6268C112.388 82.184 112.206 82.6542 111.84 83.0373C111.492 83.4029 111.03 83.5858 110.456 83.5858ZM120.487 103.828C119.146 103.828 117.962 103.585 116.934 103.097C115.907 102.627 115.089 101.956 114.479 101.086L116.647 98.9179C117.135 99.4925 117.674 99.9278 118.266 100.224C118.876 100.537 119.607 100.694 120.461 100.694C121.523 100.694 122.359 100.424 122.968 99.8843C123.595 99.3445 123.908 98.5957 123.908 97.638V94.4776L124.483 91.7089L123.934 88.9403V85.6231H127.33V97.5858C127.33 98.8395 127.034 99.9278 126.442 100.851C125.867 101.791 125.066 102.522 124.039 103.045C123.012 103.567 121.827 103.828 120.487 103.828ZM120.33 97.8992C119.198 97.8992 118.179 97.6293 117.274 97.0895C116.368 96.5323 115.655 95.7748 115.132 94.8171C114.627 93.8594 114.375 92.7885 114.375 91.6044C114.375 90.4204 114.627 89.3582 115.132 88.4179C115.655 87.4776 116.368 86.7375 117.274 86.1977C118.179 85.6405 119.198 85.3619 120.33 85.3619C121.27 85.3619 122.097 85.5447 122.811 85.9104C123.543 86.2761 124.117 86.7811 124.535 87.4253C124.953 88.0522 125.179 88.7923 125.214 89.6455V93.6156C125.179 94.4515 124.944 95.2002 124.509 95.8619C124.091 96.5062 123.516 97.0112 122.785 97.3768C122.071 97.7251 121.253 97.8992 120.33 97.8992ZM121.009 94.791C121.636 94.791 122.176 94.6604 122.628 94.3992C123.099 94.1206 123.464 93.7462 123.725 93.2761C123.987 92.7885 124.117 92.24 124.117 91.6306C124.117 91.0037 123.987 90.4552 123.725 89.985C123.464 89.5149 123.099 89.1492 122.628 88.888C122.176 88.6094 121.636 88.4701 121.009 88.4701C120.382 88.4701 119.834 88.6094 119.364 88.888C118.893 89.1492 118.528 89.5236 118.266 90.0112C118.005 90.4813 117.875 91.0211 117.875 91.6306C117.875 92.2226 118.005 92.7624 118.266 93.25C118.528 93.7201 118.893 94.0945 119.364 94.3731C119.834 94.6517 120.382 94.791 121.009 94.791ZM138.825 98.2388V91.0037C138.825 90.2549 138.59 89.6455 138.12 89.1753C137.65 88.7052 137.04 88.4701 136.292 88.4701C135.804 88.4701 135.369 88.5746 134.986 88.7835C134.602 88.9925 134.298 89.2885 134.071 89.6716C133.862 90.0547 133.758 90.4987 133.758 91.0037L132.426 90.3246C132.426 89.3321 132.635 88.4701 133.053 87.7388C133.488 86.99 134.08 86.4067 134.829 85.9888C135.595 85.5709 136.457 85.3619 137.415 85.3619C138.338 85.3619 139.165 85.597 139.896 86.0671C140.627 86.5199 141.202 87.1206 141.62 87.8694C142.038 88.6007 142.247 89.393 142.247 90.2462V98.2388H138.825ZM130.336 98.2388V85.6231H133.758V98.2388H130.336ZM157.705 98.5C156.26 98.5 154.971 98.1865 153.839 97.5597C152.725 96.9154 151.846 96.036 151.201 94.9216C150.557 93.8072 150.235 92.5447 150.235 91.1343V79.8768H153.787V91.2388C153.787 92.0572 153.953 92.7624 154.284 93.3544C154.632 93.9465 155.102 94.4079 155.694 94.7388C156.303 95.0522 156.974 95.2089 157.705 95.2089C158.454 95.2089 159.116 95.0522 159.69 94.7388C160.265 94.4079 160.718 93.9465 161.048 93.3544C161.397 92.7624 161.571 92.0659 161.571 91.2649V79.8768H165.149V91.1604C165.149 92.5709 164.827 93.8333 164.183 94.9477C163.538 96.0447 162.659 96.9154 161.545 97.5597C160.448 98.1865 159.168 98.5 157.705 98.5ZM175.291 98.5C174.386 98.5 173.567 98.3171 172.836 97.9515C172.104 97.5684 171.521 97.0547 171.086 96.4104C170.651 95.7661 170.415 95.0261 170.381 94.1903V89.7238C170.415 88.888 170.651 88.148 171.086 87.5037C171.539 86.842 172.122 86.3196 172.836 85.9365C173.567 85.5534 174.386 85.3619 175.291 85.3619C176.458 85.3619 177.503 85.6492 178.425 86.2238C179.348 86.7985 180.071 87.5821 180.593 88.5746C181.133 89.5671 181.403 90.6903 181.403 91.944C181.403 93.1803 181.133 94.2947 180.593 95.2873C180.071 96.2798 179.348 97.0634 178.425 97.638C177.503 98.2127 176.458 98.5 175.291 98.5ZM168.291 103.515V85.6231H171.713V88.9403L171.138 91.9962L171.687 95.0522V103.515H168.291ZM174.69 95.3395C175.317 95.3395 175.874 95.2002 176.362 94.9216C176.85 94.6256 177.224 94.2251 177.485 93.7201C177.764 93.1977 177.903 92.597 177.903 91.9179C177.903 91.2562 177.764 90.6728 177.485 90.1679C177.224 89.6455 176.85 89.245 176.362 88.9664C175.874 88.6704 175.317 88.5224 174.69 88.5224C174.081 88.5224 173.532 88.6704 173.045 88.9664C172.557 89.245 172.174 89.6455 171.896 90.1679C171.634 90.6728 171.504 91.2562 171.504 91.9179C171.504 92.597 171.634 93.1977 171.896 93.7201C172.174 94.2251 172.549 94.6256 173.019 94.9216C173.506 95.2002 174.063 95.3395 174.69 95.3395Z" fill="#02040B"/>
<path d="M93.738 155.537V142.849H94.9447L95.4567 144.841V155.537H93.738ZM102.514 155.537L94.7253 145.134L94.9447 142.849L102.752 153.234L102.514 155.537ZM102.514 155.537L102.002 153.654V142.849H103.721V155.537H102.514ZM110.119 155.72C109.327 155.72 108.608 155.525 107.962 155.135C107.316 154.733 106.804 154.19 106.426 153.508C106.06 152.825 105.878 152.057 105.878 151.204C105.878 150.351 106.06 149.583 106.426 148.9C106.804 148.218 107.31 147.675 107.944 147.273C108.59 146.871 109.315 146.67 110.119 146.67C110.778 146.67 111.363 146.81 111.875 147.09C112.399 147.358 112.819 147.736 113.136 148.224C113.453 148.699 113.63 149.254 113.666 149.888V152.502C113.63 153.124 113.453 153.679 113.136 154.166C112.831 154.654 112.417 155.038 111.893 155.318C111.381 155.586 110.79 155.72 110.119 155.72ZM110.394 154.166C111.21 154.166 111.869 153.892 112.368 153.343C112.868 152.783 113.118 152.07 113.118 151.204C113.118 150.607 113.002 150.089 112.771 149.65C112.551 149.199 112.234 148.852 111.82 148.608C111.405 148.352 110.924 148.224 110.375 148.224C109.827 148.224 109.339 148.352 108.913 148.608C108.498 148.864 108.169 149.217 107.925 149.668C107.694 150.107 107.578 150.613 107.578 151.186C107.578 151.771 107.694 152.289 107.925 152.74C108.169 153.179 108.504 153.526 108.931 153.782C109.358 154.038 109.845 154.166 110.394 154.166ZM113.008 155.537V153.197L113.319 151.076L113.008 148.974V146.853H114.672V155.537H113.008ZM117.068 155.537V146.853H118.713V155.537H117.068ZM122.937 155.537V150.29C122.937 149.644 122.736 149.138 122.333 148.772C121.943 148.395 121.45 148.206 120.852 148.206C120.45 148.206 120.091 148.291 119.774 148.462C119.457 148.632 119.201 148.87 119.006 149.175C118.811 149.479 118.713 149.845 118.713 150.272L118.037 149.943C118.037 149.284 118.177 148.711 118.457 148.224C118.75 147.736 119.146 147.358 119.646 147.09C120.145 146.81 120.706 146.67 121.328 146.67C121.937 146.67 122.486 146.804 122.973 147.072C123.473 147.34 123.863 147.718 124.143 148.206C124.436 148.693 124.582 149.272 124.582 149.943V155.537H122.937ZM128.806 155.537V150.29C128.806 149.644 128.605 149.138 128.202 148.772C127.812 148.395 127.325 148.206 126.74 148.206C126.338 148.206 125.972 148.291 125.643 148.462C125.326 148.632 125.07 148.87 124.875 149.175C124.68 149.479 124.582 149.845 124.582 150.272L123.65 149.943C123.686 149.272 123.863 148.699 124.18 148.224C124.509 147.736 124.93 147.358 125.442 147.09C125.954 146.81 126.514 146.67 127.124 146.67C127.758 146.67 128.324 146.804 128.824 147.072C129.324 147.34 129.72 147.718 130.013 148.206C130.317 148.693 130.47 149.278 130.47 149.961V155.537H128.806ZM136.731 155.72C135.866 155.72 135.086 155.525 134.391 155.135C133.696 154.733 133.148 154.19 132.745 153.508C132.343 152.825 132.142 152.051 132.142 151.186C132.142 150.333 132.337 149.565 132.727 148.882C133.129 148.2 133.666 147.663 134.336 147.273C135.019 146.871 135.78 146.67 136.621 146.67C137.426 146.67 138.133 146.853 138.742 147.218C139.364 147.584 139.845 148.09 140.187 148.736C140.54 149.382 140.717 150.113 140.717 150.93C140.717 151.052 140.711 151.186 140.699 151.332C140.687 151.466 140.662 151.625 140.626 151.808H133.294V150.436H139.748L139.145 150.966C139.145 150.381 139.041 149.888 138.834 149.485C138.627 149.071 138.334 148.754 137.956 148.535C137.578 148.303 137.121 148.187 136.585 148.187C136.024 148.187 135.531 148.309 135.104 148.553C134.677 148.797 134.348 149.138 134.117 149.577C133.885 150.016 133.769 150.534 133.769 151.131C133.769 151.74 133.891 152.277 134.135 152.74C134.379 153.191 134.726 153.544 135.177 153.8C135.628 154.044 136.146 154.166 136.731 154.166C137.219 154.166 137.664 154.081 138.066 153.91C138.48 153.739 138.834 153.483 139.126 153.142L140.187 154.221C139.772 154.708 139.26 155.08 138.651 155.336C138.054 155.592 137.414 155.72 136.731 155.72Z" fill="#02040B"/>
<rect x="92.8918" y="168.228" width="336.94" height="49.6269" rx="8.48881" fill="white" stroke="#DEDEDE" stroke-width="1.30597"/>
<path d="M115.872 199.403C115.255 199.403 114.702 199.267 114.21 198.995C113.73 198.713 113.354 198.327 113.082 197.836C112.81 197.345 112.675 196.775 112.675 196.128V191.802H114.085V196.065C114.085 196.472 114.153 196.828 114.289 197.131C114.435 197.423 114.644 197.648 114.916 197.804C115.187 197.961 115.506 198.039 115.872 198.039C116.425 198.039 116.859 197.867 117.172 197.522C117.486 197.167 117.643 196.681 117.643 196.065V191.802H119.053V196.128C119.053 196.775 118.917 197.345 118.646 197.836C118.374 198.327 117.998 198.713 117.517 198.995C117.047 199.267 116.499 199.403 115.872 199.403ZM123.31 199.403C122.892 199.403 122.495 199.351 122.119 199.246C121.753 199.131 121.414 198.975 121.1 198.776C120.787 198.567 120.515 198.322 120.285 198.039L121.194 197.131C121.466 197.465 121.779 197.716 122.134 197.883C122.49 198.039 122.887 198.118 123.325 198.118C123.764 198.118 124.104 198.045 124.344 197.898C124.584 197.742 124.705 197.528 124.705 197.256C124.705 196.984 124.605 196.775 124.407 196.629C124.219 196.472 123.973 196.347 123.67 196.253C123.367 196.148 123.043 196.049 122.699 195.955C122.364 195.851 122.046 195.72 121.743 195.563C121.44 195.407 121.189 195.192 120.99 194.921C120.802 194.649 120.708 194.289 120.708 193.839C120.708 193.39 120.818 193.004 121.037 192.68C121.257 192.345 121.56 192.089 121.946 191.912C122.343 191.734 122.819 191.645 123.372 191.645C123.958 191.645 124.475 191.75 124.924 191.959C125.384 192.157 125.76 192.46 126.052 192.868L125.143 193.777C124.934 193.505 124.673 193.296 124.36 193.15C124.057 193.004 123.712 192.931 123.325 192.931C122.918 192.931 122.605 193.004 122.385 193.15C122.176 193.286 122.072 193.479 122.072 193.73C122.072 193.981 122.166 194.174 122.354 194.31C122.542 194.445 122.787 194.56 123.09 194.654C123.404 194.748 123.728 194.848 124.062 194.952C124.396 195.046 124.715 195.177 125.018 195.344C125.321 195.511 125.567 195.736 125.755 196.018C125.953 196.3 126.052 196.671 126.052 197.131C126.052 197.831 125.802 198.384 125.3 198.792C124.809 199.199 124.146 199.403 123.31 199.403ZM131.079 199.403C130.337 199.403 129.669 199.236 129.073 198.901C128.478 198.557 128.008 198.092 127.663 197.507C127.318 196.922 127.146 196.258 127.146 195.516C127.146 194.785 127.313 194.127 127.647 193.542C127.992 192.957 128.452 192.497 129.026 192.163C129.611 191.818 130.264 191.645 130.985 191.645C131.675 191.645 132.281 191.802 132.803 192.116C133.336 192.429 133.749 192.863 134.041 193.416C134.344 193.97 134.496 194.597 134.496 195.297C134.496 195.401 134.49 195.516 134.48 195.642C134.469 195.757 134.449 195.892 134.417 196.049H128.133V194.874H133.665L133.148 195.328C133.148 194.827 133.059 194.404 132.881 194.059C132.704 193.704 132.453 193.432 132.129 193.244C131.805 193.045 131.413 192.946 130.954 192.946C130.473 192.946 130.05 193.051 129.684 193.26C129.319 193.469 129.037 193.761 128.838 194.137C128.64 194.513 128.54 194.957 128.54 195.469C128.54 195.992 128.645 196.451 128.854 196.848C129.063 197.235 129.36 197.538 129.747 197.757C130.134 197.966 130.578 198.071 131.079 198.071C131.497 198.071 131.878 197.998 132.223 197.851C132.578 197.705 132.881 197.486 133.132 197.193L134.041 198.118C133.686 198.536 133.247 198.854 132.725 199.074C132.213 199.293 131.664 199.403 131.079 199.403ZM136.033 199.246V191.802H137.444V199.246H136.033ZM137.444 194.999L136.911 194.764C136.911 193.813 137.13 193.056 137.569 192.492C138.008 191.928 138.64 191.645 139.466 191.645C139.842 191.645 140.181 191.713 140.484 191.849C140.787 191.975 141.069 192.189 141.33 192.492L140.406 193.448C140.249 193.281 140.077 193.16 139.889 193.087C139.701 193.014 139.481 192.978 139.23 192.978C138.708 192.978 138.28 193.145 137.945 193.479C137.611 193.813 137.444 194.32 137.444 194.999ZM146.968 200.657C146.258 200.657 145.589 200.526 144.962 200.265C144.346 200.014 143.808 199.659 143.348 199.199C142.888 198.739 142.528 198.201 142.267 197.585C142.006 196.958 141.875 196.279 141.875 195.548C141.875 194.816 142.006 194.142 142.267 193.526C142.538 192.899 142.909 192.356 143.379 191.896C143.85 191.426 144.398 191.06 145.025 190.799C145.662 190.538 146.341 190.407 147.062 190.407C148.023 190.407 148.87 190.627 149.601 191.066C150.343 191.504 150.923 192.105 151.341 192.868C151.769 193.631 151.983 194.508 151.983 195.501C151.983 195.95 151.936 196.357 151.842 196.723C151.759 197.078 151.617 197.413 151.419 197.726L150.212 197.663C150.359 197.454 150.473 197.245 150.557 197.037C150.651 196.817 150.719 196.577 150.761 196.316C150.803 196.054 150.823 195.757 150.823 195.422C150.823 194.597 150.672 193.897 150.369 193.322C150.076 192.737 149.648 192.293 149.084 191.99C148.53 191.677 147.862 191.52 147.078 191.52C146.284 191.52 145.584 191.687 144.978 192.022C144.382 192.356 143.917 192.826 143.583 193.432C143.259 194.028 143.097 194.738 143.097 195.563C143.097 196.378 143.254 197.084 143.567 197.679C143.891 198.275 144.346 198.739 144.931 199.074C145.516 199.398 146.185 199.56 146.937 199.56C147.491 199.56 147.987 199.481 148.426 199.325C148.864 199.178 149.251 198.954 149.585 198.651L150.369 199.45C149.909 199.847 149.392 200.145 148.817 200.343C148.243 200.552 147.626 200.657 146.968 200.657ZM146.686 197.836C146.279 197.836 145.908 197.737 145.573 197.538C145.25 197.329 144.983 197.052 144.774 196.707C144.576 196.363 144.476 195.976 144.476 195.548C144.476 195.119 144.576 194.733 144.774 194.388C144.983 194.033 145.25 193.756 145.573 193.557C145.908 193.348 146.279 193.244 146.686 193.244C147.188 193.244 147.595 193.369 147.909 193.62C148.232 193.86 148.394 194.216 148.394 194.686V196.394C148.394 196.854 148.238 197.209 147.924 197.46C147.611 197.71 147.198 197.836 146.686 197.836ZM146.749 196.848C147.125 196.848 147.423 196.728 147.642 196.488C147.872 196.237 147.987 195.919 147.987 195.532C147.987 195.135 147.872 194.816 147.642 194.576C147.423 194.336 147.125 194.216 146.749 194.216C146.404 194.216 146.112 194.341 145.871 194.592C145.641 194.832 145.526 195.145 145.526 195.532C145.526 195.919 145.641 196.237 145.871 196.488C146.101 196.728 146.394 196.848 146.749 196.848ZM148.504 197.726V196.801H151.419V197.726H148.504ZM148.065 197.726V196.566L148.222 195.469L148.065 194.419V193.338H149.084V197.726H148.065ZM157.28 199.403C156.538 199.403 155.87 199.236 155.274 198.901C154.679 198.557 154.209 198.092 153.864 197.507C153.519 196.922 153.347 196.258 153.347 195.516C153.347 194.785 153.514 194.127 153.848 193.542C154.193 192.957 154.653 192.497 155.227 192.163C155.812 191.818 156.465 191.645 157.186 191.645C157.876 191.645 158.482 191.802 159.004 192.116C159.537 192.429 159.95 192.863 160.242 193.416C160.545 193.97 160.697 194.597 160.697 195.297C160.697 195.401 160.691 195.516 160.681 195.642C160.67 195.757 160.65 195.892 160.618 196.049H154.334V194.874H159.866L159.349 195.328C159.349 194.827 159.26 194.404 159.082 194.059C158.905 193.704 158.654 193.432 158.33 193.244C158.006 193.045 157.614 192.946 157.155 192.946C156.674 192.946 156.251 193.051 155.885 193.26C155.52 193.469 155.238 193.761 155.039 194.137C154.841 194.513 154.741 194.957 154.741 195.469C154.741 195.992 154.846 196.451 155.055 196.848C155.264 197.235 155.562 197.538 155.948 197.757C156.335 197.966 156.779 198.071 157.28 198.071C157.698 198.071 158.079 197.998 158.424 197.851C158.779 197.705 159.082 197.486 159.333 197.193L160.242 198.118C159.887 198.536 159.448 198.854 158.926 199.074C158.414 199.293 157.865 199.403 157.28 199.403ZM166.894 199.246L164.575 195.987L164.309 195.736L161.378 191.802H163.086L165.202 194.701L165.468 194.921L168.603 199.246H166.894ZM161.237 199.246L164.309 195.109L165.108 196.143L162.898 199.246H161.237ZM165.578 195.72L164.763 194.717L166.816 191.802H168.462L165.578 195.72ZM172.838 199.403C172.159 199.403 171.543 199.236 170.989 198.901C170.435 198.557 169.996 198.092 169.672 197.507C169.359 196.922 169.202 196.263 169.202 195.532C169.202 194.801 169.359 194.142 169.672 193.557C169.996 192.972 170.43 192.507 170.973 192.163C171.527 191.818 172.149 191.645 172.838 191.645C173.402 191.645 173.904 191.766 174.343 192.006C174.792 192.236 175.152 192.56 175.424 192.978C175.696 193.385 175.847 193.86 175.878 194.404V196.645C175.847 197.178 175.696 197.653 175.424 198.071C175.163 198.489 174.807 198.818 174.358 199.058C173.919 199.288 173.413 199.403 172.838 199.403ZM173.073 198.071C173.773 198.071 174.337 197.836 174.766 197.366C175.194 196.885 175.408 196.274 175.408 195.532C175.408 195.02 175.309 194.576 175.11 194.2C174.922 193.813 174.651 193.516 174.296 193.307C173.94 193.087 173.528 192.978 173.057 192.978C172.587 192.978 172.169 193.087 171.804 193.307C171.449 193.526 171.166 193.829 170.957 194.216C170.759 194.592 170.66 195.025 170.66 195.516C170.66 196.018 170.759 196.462 170.957 196.848C171.166 197.225 171.454 197.522 171.819 197.742C172.185 197.961 172.603 198.071 173.073 198.071ZM175.314 199.246V197.24L175.581 195.422L175.314 193.62V191.802H176.74V199.246H175.314ZM178.794 199.246V191.802H180.204V199.246H178.794ZM183.824 199.246V194.748C183.824 194.195 183.652 193.761 183.307 193.448C182.973 193.124 182.55 192.962 182.038 192.962C181.693 192.962 181.385 193.035 181.113 193.181C180.842 193.328 180.622 193.531 180.455 193.792C180.288 194.054 180.204 194.367 180.204 194.733L179.624 194.451C179.624 193.887 179.745 193.395 179.985 192.978C180.236 192.56 180.575 192.236 181.003 192.006C181.432 191.766 181.912 191.645 182.445 191.645C182.968 191.645 183.438 191.76 183.856 191.99C184.284 192.22 184.618 192.544 184.859 192.962C185.109 193.38 185.235 193.876 185.235 194.451V199.246H183.824ZM188.855 199.246V194.748C188.855 194.195 188.683 193.761 188.338 193.448C188.003 193.124 187.586 192.962 187.084 192.962C186.739 192.962 186.426 193.035 186.144 193.181C185.872 193.328 185.653 193.531 185.486 193.792C185.318 194.054 185.235 194.367 185.235 194.733L184.436 194.451C184.467 193.876 184.618 193.385 184.89 192.978C185.172 192.56 185.533 192.236 185.971 192.006C186.41 191.766 186.891 191.645 187.413 191.645C187.956 191.645 188.442 191.76 188.871 191.99C189.299 192.22 189.639 192.544 189.889 192.962C190.151 193.38 190.281 193.881 190.281 194.466V199.246H188.855ZM196.118 199.403C195.554 199.403 195.042 199.288 194.582 199.058C194.133 198.818 193.773 198.489 193.501 198.071C193.229 197.653 193.078 197.178 193.047 196.645V194.404C193.078 193.86 193.229 193.385 193.501 192.978C193.783 192.56 194.149 192.236 194.598 192.006C195.058 191.766 195.565 191.645 196.118 191.645C196.797 191.645 197.409 191.818 197.952 192.163C198.506 192.507 198.939 192.972 199.253 193.557C199.566 194.142 199.723 194.801 199.723 195.532C199.723 196.263 199.566 196.922 199.253 197.507C198.939 198.092 198.506 198.557 197.952 198.901C197.409 199.236 196.797 199.403 196.118 199.403ZM192.2 202.365V191.802H193.611V193.761L193.344 195.563L193.611 197.381V202.365H192.2ZM195.883 198.071C196.353 198.071 196.766 197.961 197.121 197.742C197.477 197.522 197.759 197.225 197.968 196.848C198.177 196.462 198.281 196.018 198.281 195.516C198.281 195.025 198.177 194.587 197.968 194.2C197.759 193.813 197.477 193.516 197.121 193.307C196.766 193.087 196.359 192.978 195.899 192.978C195.429 192.978 195.016 193.087 194.661 193.307C194.306 193.516 194.029 193.813 193.83 194.2C193.632 194.587 193.532 195.031 193.532 195.532C193.532 196.023 193.627 196.462 193.815 196.848C194.013 197.225 194.29 197.522 194.645 197.742C195.011 197.961 195.424 198.071 195.883 198.071ZM201.322 199.246V188.057H202.732V199.246H201.322ZM208.244 199.403C207.502 199.403 206.833 199.236 206.238 198.901C205.642 198.557 205.172 198.092 204.827 197.507C204.482 196.922 204.31 196.258 204.31 195.516C204.31 194.785 204.477 194.127 204.812 193.542C205.156 192.957 205.616 192.497 206.191 192.163C206.776 191.818 207.429 191.645 208.15 191.645C208.839 191.645 209.445 191.802 209.967 192.116C210.5 192.429 210.913 192.863 211.206 193.416C211.509 193.97 211.66 194.597 211.66 195.297C211.66 195.401 211.655 195.516 211.644 195.642C211.634 195.757 211.613 195.892 211.582 196.049H205.297V194.874H210.829L210.312 195.328C210.312 194.827 210.223 194.404 210.046 194.059C209.868 193.704 209.617 193.432 209.294 193.244C208.97 193.045 208.578 192.946 208.118 192.946C207.638 192.946 207.215 193.051 206.849 193.26C206.483 193.469 206.201 193.761 206.003 194.137C205.804 194.513 205.705 194.957 205.705 195.469C205.705 195.992 205.809 196.451 206.018 196.848C206.227 197.235 206.525 197.538 206.912 197.757C207.298 197.966 207.742 198.071 208.244 198.071C208.662 198.071 209.043 197.998 209.388 197.851C209.743 197.705 210.046 197.486 210.297 197.193L211.206 198.118C210.85 198.536 210.412 198.854 209.889 199.074C209.377 199.293 208.829 199.403 208.244 199.403ZM214.436 199.403C214.143 199.403 213.898 199.304 213.699 199.105C213.511 198.896 213.417 198.651 213.417 198.369C213.417 198.076 213.511 197.836 213.699 197.648C213.898 197.449 214.143 197.35 214.436 197.35C214.729 197.35 214.969 197.449 215.157 197.648C215.355 197.836 215.455 198.076 215.455 198.369C215.455 198.651 215.355 198.896 215.157 199.105C214.969 199.304 214.729 199.403 214.436 199.403ZM220.853 199.403C220.122 199.403 219.459 199.231 218.863 198.886C218.278 198.541 217.813 198.076 217.468 197.491C217.134 196.895 216.967 196.237 216.967 195.516C216.967 194.785 217.134 194.127 217.468 193.542C217.813 192.957 218.278 192.497 218.863 192.163C219.459 191.818 220.122 191.645 220.853 191.645C221.428 191.645 221.961 191.755 222.452 191.975C222.943 192.184 223.366 192.492 223.721 192.899L222.781 193.839C222.551 193.568 222.269 193.364 221.935 193.228C221.611 193.082 221.25 193.009 220.853 193.009C220.383 193.009 219.965 193.119 219.6 193.338C219.234 193.547 218.947 193.839 218.738 194.216C218.529 194.592 218.424 195.025 218.424 195.516C218.424 196.007 218.529 196.441 218.738 196.817C218.947 197.193 219.234 197.491 219.6 197.71C219.965 197.93 220.383 198.039 220.853 198.039C221.25 198.039 221.611 197.972 221.935 197.836C222.269 197.689 222.556 197.481 222.797 197.209L223.721 198.149C223.376 198.546 222.953 198.854 222.452 199.074C221.961 199.293 221.428 199.403 220.853 199.403ZM228.383 199.403C227.652 199.403 226.993 199.231 226.408 198.886C225.823 198.541 225.358 198.076 225.014 197.491C224.669 196.895 224.496 196.232 224.496 195.501C224.496 194.78 224.669 194.132 225.014 193.557C225.358 192.972 225.823 192.507 226.408 192.163C226.993 191.818 227.652 191.645 228.383 191.645C229.104 191.645 229.757 191.818 230.342 192.163C230.938 192.497 231.408 192.957 231.752 193.542C232.097 194.127 232.27 194.78 232.27 195.501C232.27 196.232 232.097 196.895 231.752 197.491C231.408 198.076 230.938 198.541 230.342 198.886C229.757 199.231 229.104 199.403 228.383 199.403ZM228.383 198.039C228.853 198.039 229.271 197.93 229.637 197.71C230.002 197.491 230.29 197.193 230.499 196.817C230.708 196.431 230.812 195.992 230.812 195.501C230.812 195.02 230.702 194.592 230.483 194.216C230.274 193.839 229.987 193.547 229.621 193.338C229.266 193.119 228.853 193.009 228.383 193.009C227.913 193.009 227.495 193.119 227.129 193.338C226.764 193.547 226.476 193.839 226.267 194.216C226.058 194.592 225.954 195.02 225.954 195.501C225.954 195.992 226.058 196.431 226.267 196.817C226.476 197.193 226.764 197.491 227.129 197.71C227.495 197.93 227.913 198.039 228.383 198.039ZM233.859 199.246V191.802H235.269V199.246H233.859ZM238.889 199.246V194.748C238.889 194.195 238.717 193.761 238.372 193.448C238.038 193.124 237.615 192.962 237.103 192.962C236.758 192.962 236.45 193.035 236.178 193.181C235.907 193.328 235.687 193.531 235.52 193.792C235.353 194.054 235.269 194.367 235.269 194.733L234.689 194.451C234.689 193.887 234.81 193.395 235.05 192.978C235.301 192.56 235.64 192.236 236.069 192.006C236.497 191.766 236.977 191.645 237.51 191.645C238.033 191.645 238.503 191.76 238.921 191.99C239.349 192.22 239.683 192.544 239.924 192.962C240.174 193.38 240.3 193.876 240.3 194.451V199.246H238.889ZM243.92 199.246V194.748C243.92 194.195 243.748 193.761 243.403 193.448C243.069 193.124 242.651 192.962 242.149 192.962C241.804 192.962 241.491 193.035 241.209 193.181C240.937 193.328 240.718 193.531 240.551 193.792C240.383 194.054 240.3 194.367 240.3 194.733L239.501 194.451C239.532 193.876 239.683 193.385 239.955 192.978C240.237 192.56 240.598 192.236 241.036 192.006C241.475 191.766 241.956 191.645 242.478 191.645C243.021 191.645 243.507 191.76 243.936 191.99C244.364 192.22 244.704 192.544 244.954 192.962C245.216 193.38 245.346 193.881 245.346 194.466V199.246H243.92Z" fill="#02040B"/>
<path d="M93.738 262.627V249.938H95.4567V262.627H93.738ZM94.9082 262.627V261.054H102.185V262.627H94.9082ZM94.9082 256.886V255.387H101.582V256.886H94.9082ZM94.9082 251.51V249.938H102.094V251.51H94.9082ZM104.23 262.627V253.942H105.875V262.627H104.23ZM110.099 262.627V257.379C110.099 256.733 109.898 256.228 109.496 255.862C109.106 255.484 108.612 255.295 108.015 255.295C107.612 255.295 107.253 255.38 106.936 255.551C106.619 255.722 106.363 255.959 106.168 256.264C105.973 256.569 105.875 256.935 105.875 257.361L105.199 257.032C105.199 256.374 105.339 255.801 105.619 255.313C105.912 254.826 106.308 254.448 106.808 254.18C107.308 253.899 107.868 253.759 108.49 253.759C109.099 253.759 109.648 253.893 110.136 254.162C110.635 254.43 111.025 254.808 111.306 255.295C111.598 255.783 111.744 256.362 111.744 257.032V262.627H110.099ZM115.968 262.627V257.379C115.968 256.733 115.767 256.228 115.365 255.862C114.975 255.484 114.487 255.295 113.902 255.295C113.5 255.295 113.134 255.38 112.805 255.551C112.488 255.722 112.232 255.959 112.037 256.264C111.842 256.569 111.744 256.935 111.744 257.361L110.812 257.032C110.849 256.362 111.025 255.789 111.342 255.313C111.671 254.826 112.092 254.448 112.604 254.18C113.116 253.899 113.676 253.759 114.286 253.759C114.92 253.759 115.487 253.893 115.986 254.162C116.486 254.43 116.882 254.808 117.175 255.295C117.479 255.783 117.632 256.368 117.632 257.05V262.627H115.968ZM123.564 262.81C122.772 262.81 122.053 262.615 121.407 262.225C120.761 261.822 120.249 261.28 119.871 260.597C119.505 259.915 119.322 259.147 119.322 258.294C119.322 257.44 119.505 256.672 119.871 255.99C120.249 255.307 120.755 254.765 121.389 254.363C122.035 253.96 122.76 253.759 123.564 253.759C124.222 253.759 124.808 253.899 125.319 254.18C125.844 254.448 126.264 254.826 126.581 255.313C126.898 255.789 127.075 256.343 127.111 256.977V259.592C127.075 260.213 126.898 260.768 126.581 261.256C126.276 261.743 125.862 262.127 125.338 262.407C124.826 262.676 124.235 262.81 123.564 262.81ZM123.839 261.256C124.655 261.256 125.313 260.981 125.813 260.433C126.313 259.872 126.563 259.159 126.563 258.294C126.563 257.696 126.447 257.178 126.215 256.74C125.996 256.289 125.679 255.941 125.265 255.697C124.85 255.441 124.369 255.313 123.82 255.313C123.272 255.313 122.784 255.441 122.358 255.697C121.943 255.953 121.614 256.307 121.37 256.758C121.139 257.197 121.023 257.702 121.023 258.275C121.023 258.86 121.139 259.378 121.37 259.829C121.614 260.268 121.949 260.616 122.376 260.872C122.802 261.128 123.29 261.256 123.839 261.256ZM126.453 262.627V260.287L126.764 258.166L126.453 256.063V253.942H128.117V262.627H126.453ZM130.531 262.627V253.942H132.176V262.627H130.531ZM131.354 252.205C131.049 252.205 130.799 252.108 130.604 251.913C130.409 251.705 130.311 251.449 130.311 251.145C130.311 250.852 130.409 250.608 130.604 250.413C130.799 250.206 131.049 250.103 131.354 250.103C131.658 250.103 131.908 250.206 132.103 250.413C132.298 250.608 132.396 250.852 132.396 251.145C132.396 251.449 132.298 251.705 132.103 251.913C131.908 252.108 131.658 252.205 131.354 252.205ZM134.601 262.627V249.572H136.247V262.627H134.601Z" fill="#02040B"/>
<rect x="92.8918" y="275.317" width="168.47" height="49.6269" rx="8.48881" fill="white" stroke="#DEDEDE" stroke-width="1.30597"/>
<path d="M116.138 306.493C115.281 306.493 114.55 306.336 113.944 306.022C113.338 305.709 112.8 305.254 112.33 304.659L113.333 303.656C113.678 304.137 114.075 304.502 114.524 304.753C114.973 304.993 115.527 305.113 116.185 305.113C116.833 305.113 117.35 304.972 117.737 304.69C118.134 304.408 118.332 304.022 118.332 303.531C118.332 303.123 118.238 302.794 118.05 302.543C117.862 302.293 117.606 302.089 117.282 301.932C116.969 301.765 116.624 301.619 116.248 301.493C115.872 301.357 115.496 301.216 115.119 301.07C114.743 300.913 114.399 300.725 114.085 300.506C113.772 300.276 113.516 299.978 113.317 299.613C113.129 299.247 113.035 298.787 113.035 298.234C113.035 297.617 113.181 297.095 113.474 296.666C113.777 296.228 114.184 295.893 114.696 295.663C115.219 295.423 115.804 295.303 116.452 295.303C117.162 295.303 117.799 295.444 118.363 295.726C118.928 295.998 119.387 296.358 119.743 296.807L118.74 297.81C118.416 297.434 118.066 297.152 117.69 296.964C117.324 296.776 116.901 296.682 116.42 296.682C115.835 296.682 115.37 296.813 115.025 297.074C114.681 297.325 114.508 297.68 114.508 298.14C114.508 298.505 114.602 298.803 114.79 299.033C114.989 299.252 115.245 299.44 115.558 299.597C115.872 299.754 116.216 299.9 116.593 300.036C116.979 300.161 117.36 300.302 117.737 300.459C118.113 300.616 118.457 300.814 118.771 301.054C119.084 301.295 119.335 301.608 119.523 301.995C119.722 302.371 119.821 302.846 119.821 303.421C119.821 304.382 119.487 305.134 118.818 305.678C118.16 306.221 117.266 306.493 116.138 306.493ZM121.571 306.336V298.892H122.982V306.336H121.571ZM122.276 297.403C122.015 297.403 121.801 297.319 121.634 297.152C121.467 296.975 121.383 296.755 121.383 296.494C121.383 296.243 121.467 296.034 121.634 295.867C121.801 295.69 122.015 295.601 122.276 295.601C122.538 295.601 122.752 295.69 122.919 295.867C123.086 296.034 123.17 296.243 123.17 296.494C123.17 296.755 123.086 296.975 122.919 297.152C122.752 297.319 122.538 297.403 122.276 297.403ZM128.148 309.611C127.385 309.611 126.706 309.47 126.11 309.188C125.525 308.906 125.055 308.509 124.7 307.997L125.609 307.072C125.912 307.459 126.272 307.751 126.69 307.95C127.108 308.159 127.604 308.263 128.179 308.263C128.942 308.263 129.542 308.06 129.981 307.652C130.43 307.255 130.655 306.717 130.655 306.038V304.189L130.906 302.512L130.655 300.851V298.892H132.065V306.038C132.065 306.749 131.898 307.37 131.564 307.903C131.24 308.436 130.78 308.854 130.185 309.157C129.6 309.46 128.921 309.611 128.148 309.611ZM128.148 306.21C127.468 306.21 126.857 306.049 126.314 305.725C125.781 305.401 125.358 304.957 125.045 304.393C124.731 303.818 124.574 303.175 124.574 302.465C124.574 301.754 124.731 301.122 125.045 300.569C125.358 300.004 125.781 299.56 126.314 299.237C126.857 298.902 127.468 298.735 128.148 298.735C128.733 298.735 129.25 298.85 129.699 299.08C130.148 299.31 130.504 299.634 130.765 300.051C131.036 300.459 131.183 300.94 131.204 301.493V303.468C131.172 304.011 131.021 304.492 130.749 304.91C130.488 305.317 130.133 305.636 129.683 305.866C129.234 306.096 128.722 306.21 128.148 306.21ZM128.43 304.878C128.889 304.878 129.292 304.779 129.636 304.581C129.992 304.382 130.263 304.105 130.451 303.75C130.639 303.384 130.733 302.961 130.733 302.481C130.733 302 130.634 301.582 130.436 301.227C130.248 300.861 129.981 300.579 129.636 300.381C129.292 300.172 128.884 300.067 128.414 300.067C127.944 300.067 127.531 300.172 127.176 300.381C126.821 300.579 126.539 300.861 126.33 301.227C126.131 301.582 126.032 301.995 126.032 302.465C126.032 302.935 126.131 303.353 126.33 303.719C126.539 304.084 126.821 304.372 127.176 304.581C127.542 304.779 127.96 304.878 128.43 304.878ZM139.401 306.336V301.995C139.401 301.431 139.224 300.966 138.869 300.6C138.513 300.234 138.054 300.051 137.489 300.051C137.113 300.051 136.779 300.135 136.486 300.302C136.194 300.469 135.964 300.699 135.797 300.992C135.63 301.284 135.546 301.619 135.546 301.995L134.966 301.666C134.966 301.101 135.092 300.6 135.342 300.161C135.593 299.722 135.943 299.378 136.392 299.127C136.842 298.866 137.348 298.735 137.913 298.735C138.477 298.735 138.973 298.876 139.401 299.158C139.84 299.44 140.185 299.811 140.436 300.271C140.686 300.72 140.812 301.201 140.812 301.713V306.336H139.401ZM134.136 306.336V298.892H135.546V306.336H134.136ZM150.307 306.493C149.502 306.493 148.781 306.315 148.144 305.96C147.517 305.594 147.021 305.098 146.655 304.471C146.289 303.834 146.107 303.113 146.107 302.308V295.46H147.58V302.277C147.58 302.851 147.7 303.348 147.94 303.766C148.181 304.184 148.504 304.507 148.912 304.737C149.33 304.967 149.795 305.082 150.307 305.082C150.839 305.082 151.304 304.967 151.701 304.737C152.109 304.507 152.428 304.184 152.657 303.766C152.898 303.348 153.018 302.857 153.018 302.293V295.46H154.507V302.324C154.507 303.128 154.324 303.844 153.958 304.471C153.592 305.098 153.096 305.594 152.469 305.96C151.842 306.315 151.122 306.493 150.307 306.493ZM160.597 306.493C160.033 306.493 159.521 306.378 159.061 306.148C158.612 305.907 158.251 305.578 157.98 305.16C157.708 304.743 157.557 304.267 157.525 303.734V301.493C157.557 300.95 157.708 300.475 157.98 300.067C158.262 299.649 158.628 299.325 159.077 299.096C159.536 298.855 160.043 298.735 160.597 298.735C161.276 298.735 161.887 298.907 162.431 299.252C162.984 299.597 163.418 300.062 163.731 300.647C164.045 301.232 164.201 301.89 164.201 302.622C164.201 303.353 164.045 304.011 163.731 304.596C163.418 305.181 162.984 305.646 162.431 305.991C161.887 306.325 161.276 306.493 160.597 306.493ZM156.679 309.454V298.892H158.089V300.851L157.823 302.653L158.089 304.471V309.454H156.679ZM160.362 305.16C160.832 305.16 161.245 305.051 161.6 304.831C161.955 304.612 162.237 304.314 162.446 303.938C162.655 303.551 162.76 303.107 162.76 302.606C162.76 302.115 162.655 301.676 162.446 301.29C162.237 300.903 161.955 300.605 161.6 300.396C161.245 300.177 160.837 300.067 160.378 300.067C159.907 300.067 159.495 300.177 159.139 300.396C158.784 300.605 158.507 300.903 158.309 301.29C158.11 301.676 158.011 302.12 158.011 302.622C158.011 303.113 158.105 303.551 158.293 303.938C158.492 304.314 158.769 304.612 159.124 304.831C159.489 305.051 159.902 305.16 160.362 305.16Z" fill="#02040B"/>
<rect x="92.2388" y="358.246" width="169.776" height="50.9328" rx="9.14179" fill="#3D6BD8"/>
<path d="M153.949 390.075C153.081 390.075 152.345 389.918 151.739 389.605C151.133 389.291 150.59 388.831 150.109 388.225L151.331 387.003C151.634 387.442 151.995 387.787 152.413 388.037C152.831 388.278 153.363 388.398 154.011 388.398C154.617 388.398 155.098 388.272 155.453 388.022C155.819 387.771 156.002 387.426 156.002 386.987C156.002 386.622 155.908 386.324 155.719 386.094C155.531 385.864 155.281 385.676 154.967 385.53C154.664 385.373 154.325 385.237 153.949 385.122C153.583 384.997 153.212 384.861 152.836 384.715C152.47 384.558 152.131 384.365 151.817 384.135C151.514 383.905 151.269 383.608 151.081 383.242C150.893 382.876 150.799 382.411 150.799 381.847C150.799 381.199 150.955 380.651 151.269 380.202C151.593 379.742 152.026 379.392 152.569 379.152C153.113 378.911 153.719 378.791 154.387 378.791C155.108 378.791 155.751 378.932 156.315 379.214C156.89 379.496 157.355 379.857 157.71 380.296L156.487 381.518C156.174 381.163 155.845 380.902 155.5 380.734C155.166 380.557 154.779 380.468 154.34 380.468C153.797 380.468 153.369 380.578 153.055 380.797C152.752 381.016 152.601 381.325 152.601 381.722C152.601 382.056 152.695 382.328 152.883 382.537C153.071 382.735 153.316 382.908 153.619 383.054C153.933 383.19 154.272 383.32 154.638 383.446C155.014 383.571 155.385 383.712 155.751 383.869C156.127 384.025 156.466 384.229 156.769 384.48C157.083 384.72 157.334 385.034 157.522 385.42C157.71 385.807 157.804 386.293 157.804 386.878C157.804 387.86 157.454 388.638 156.754 389.213C156.064 389.787 155.129 390.075 153.949 390.075ZM159.381 389.918V382.396H161.105V389.918H159.381ZM160.243 381.016C159.951 381.016 159.705 380.917 159.507 380.719C159.319 380.52 159.225 380.275 159.225 379.982C159.225 379.69 159.319 379.444 159.507 379.246C159.705 379.047 159.951 378.948 160.243 378.948C160.546 378.948 160.792 379.047 160.98 379.246C161.168 379.444 161.262 379.69 161.262 379.982C161.262 380.275 161.168 380.52 160.98 380.719C160.792 380.917 160.546 381.016 160.243 381.016ZM166.173 393.209C165.379 393.209 164.684 393.063 164.089 392.77C163.493 392.488 163.013 392.086 162.647 391.563L163.775 390.435C164.078 390.811 164.423 391.093 164.81 391.281C165.196 391.469 165.661 391.563 166.204 391.563C166.883 391.563 167.422 391.386 167.819 391.031C168.216 390.686 168.414 390.211 168.414 389.605V387.755L168.712 386.094L168.414 384.417V382.396H170.138V389.605C170.138 390.325 169.971 390.952 169.636 391.485C169.302 392.028 168.837 392.452 168.242 392.755C167.646 393.058 166.957 393.209 166.173 393.209ZM166.095 389.761C165.426 389.761 164.82 389.599 164.277 389.275C163.744 388.941 163.321 388.487 163.007 387.912C162.704 387.337 162.553 386.695 162.553 385.984C162.553 385.274 162.704 384.637 163.007 384.072C163.321 383.508 163.744 383.064 164.277 382.74C164.82 382.406 165.426 382.239 166.095 382.239C166.69 382.239 167.213 382.359 167.662 382.599C168.111 382.84 168.461 383.174 168.712 383.602C168.963 384.02 169.088 384.511 169.088 385.075V386.925C169.088 387.478 168.957 387.969 168.696 388.398C168.445 388.826 168.095 389.161 167.646 389.401C167.197 389.641 166.68 389.761 166.095 389.761ZM166.439 388.131C166.857 388.131 167.223 388.043 167.536 387.865C167.85 387.687 168.09 387.442 168.257 387.128C168.435 386.805 168.524 386.428 168.524 386C168.524 385.572 168.435 385.201 168.257 384.887C168.09 384.563 167.85 384.313 167.536 384.135C167.223 383.958 166.857 383.869 166.439 383.869C166.022 383.869 165.651 383.958 165.327 384.135C165.013 384.313 164.768 384.563 164.59 384.887C164.413 385.201 164.324 385.572 164.324 386C164.324 386.418 164.413 386.789 164.59 387.113C164.768 387.437 165.013 387.687 165.327 387.865C165.651 388.043 166.022 388.131 166.439 388.131ZM177.209 389.918V385.577C177.209 385.075 177.047 384.663 176.723 384.339C176.41 384.015 176.002 383.853 175.501 383.853C175.166 383.853 174.869 383.926 174.607 384.072C174.346 384.219 174.143 384.422 173.996 384.684C173.85 384.945 173.777 385.243 173.777 385.577L173.103 385.201C173.103 384.626 173.228 384.119 173.479 383.681C173.73 383.231 174.075 382.881 174.513 382.631C174.963 382.369 175.464 382.239 176.018 382.239C176.582 382.239 177.084 382.385 177.522 382.678C177.961 382.96 178.306 383.331 178.557 383.79C178.807 384.24 178.933 384.71 178.933 385.201V389.918H177.209ZM172.053 389.918V382.396H173.777V389.918H172.053ZM188.288 390.075C187.463 390.075 186.721 389.887 186.063 389.511C185.405 389.134 184.882 388.622 184.496 387.975C184.12 387.316 183.932 386.575 183.932 385.749V378.948H185.734V385.734C185.734 386.266 185.844 386.731 186.063 387.128C186.293 387.515 186.601 387.818 186.988 388.037C187.374 388.246 187.808 388.351 188.288 388.351C188.779 388.351 189.213 388.246 189.589 388.037C189.965 387.818 190.263 387.515 190.482 387.128C190.702 386.731 190.812 386.272 190.812 385.749V378.948H192.614V385.765C192.614 386.59 192.426 387.327 192.05 387.975C191.674 388.622 191.162 389.134 190.514 389.511C189.866 389.887 189.124 390.075 188.288 390.075ZM198.67 390.075C198.095 390.075 197.583 389.955 197.134 389.714C196.685 389.463 196.329 389.124 196.068 388.696C195.818 388.267 195.692 387.781 195.692 387.238V385.075C195.692 384.532 195.823 384.046 196.084 383.618C196.345 383.19 196.7 382.855 197.15 382.615C197.599 382.364 198.106 382.239 198.67 382.239C199.349 382.239 199.96 382.416 200.503 382.772C201.057 383.116 201.491 383.587 201.804 384.182C202.128 384.767 202.29 385.431 202.29 386.172C202.29 386.904 202.128 387.567 201.804 388.163C201.491 388.748 201.057 389.213 200.503 389.558C199.96 389.902 199.349 390.075 198.67 390.075ZM194.642 393.052V382.396H196.366V384.417L196.068 386.251L196.366 388.069V393.052H194.642ZM198.388 388.445C198.806 388.445 199.171 388.351 199.485 388.163C199.809 387.964 200.059 387.693 200.237 387.348C200.425 387.003 200.519 386.606 200.519 386.157C200.519 385.708 200.425 385.311 200.237 384.966C200.059 384.621 199.809 384.355 199.485 384.166C199.171 383.968 198.806 383.869 198.388 383.869C197.97 383.869 197.599 383.968 197.275 384.166C196.951 384.355 196.7 384.621 196.523 384.966C196.345 385.311 196.256 385.708 196.256 386.157C196.256 386.606 196.345 387.003 196.523 387.348C196.7 387.693 196.951 387.964 197.275 388.163C197.599 388.351 197.97 388.445 198.388 388.445Z" fill="white"/>
<g filter="url(#filter1_d_405_1245)">
<rect x="356.045" y="134.925" width="208.955" height="117.537" rx="13.0597" fill="white"/>
</g>
<rect x="356.045" y="193.694" width="208.955" height="1.30597" rx="0.652985" fill="#DFDFDF"/>
<path d="M413.126 177.045L408.769 166.169H410.368L413.957 175.368H413.377L416.997 166.169H418.58L414.192 177.045H413.126ZM421.743 177.202C421.064 177.202 420.447 177.034 419.893 176.7C419.34 176.355 418.901 175.89 418.577 175.305C418.264 174.72 418.107 174.062 418.107 173.331C418.107 172.599 418.264 171.941 418.577 171.356C418.901 170.771 419.334 170.306 419.878 169.961C420.432 169.616 421.053 169.444 421.743 169.444C422.307 169.444 422.808 169.564 423.247 169.805C423.696 170.034 424.057 170.358 424.329 170.776C424.6 171.184 424.752 171.659 424.783 172.202V174.443C424.752 174.976 424.6 175.452 424.329 175.869C424.067 176.287 423.712 176.616 423.263 176.857C422.824 177.087 422.317 177.202 421.743 177.202ZM421.978 175.869C422.678 175.869 423.242 175.634 423.67 175.164C424.099 174.684 424.313 174.072 424.313 173.331C424.313 172.819 424.214 172.375 424.015 171.999C423.827 171.612 423.555 171.314 423.2 171.105C422.845 170.886 422.432 170.776 421.962 170.776C421.492 170.776 421.074 170.886 420.708 171.105C420.353 171.325 420.071 171.628 419.862 172.014C419.664 172.39 419.564 172.824 419.564 173.315C419.564 173.816 419.664 174.26 419.862 174.647C420.071 175.023 420.358 175.321 420.724 175.54C421.09 175.76 421.508 175.869 421.978 175.869ZM424.219 177.045V175.039L424.485 173.221L424.219 171.419V169.601H425.645V177.045H424.219ZM427.698 177.045V165.855H429.109V177.045H427.698ZM431.188 177.045V169.601H432.599V177.045H431.188ZM431.893 168.112C431.632 168.112 431.418 168.028 431.251 167.861C431.084 167.684 431 167.464 431 167.203C431 166.952 431.084 166.743 431.251 166.576C431.418 166.399 431.632 166.31 431.893 166.31C432.155 166.31 432.369 166.399 432.536 166.576C432.703 166.743 432.787 166.952 432.787 167.203C432.787 167.464 432.703 167.684 432.536 167.861C432.369 168.028 432.155 168.112 431.893 168.112ZM437.827 177.202C437.138 177.202 436.521 177.034 435.978 176.7C435.435 176.355 435.001 175.89 434.677 175.305C434.364 174.72 434.207 174.062 434.207 173.331C434.207 172.599 434.364 171.941 434.677 171.356C435.001 170.771 435.435 170.306 435.978 169.961C436.521 169.616 437.138 169.444 437.827 169.444C438.381 169.444 438.882 169.564 439.332 169.805C439.781 170.034 440.141 170.358 440.413 170.776C440.695 171.184 440.852 171.659 440.883 172.202V174.443C440.852 174.976 440.7 175.452 440.429 175.869C440.157 176.287 439.797 176.616 439.347 176.857C438.898 177.087 438.391 177.202 437.827 177.202ZM438.062 175.869C438.532 175.869 438.94 175.76 439.285 175.54C439.64 175.321 439.917 175.023 440.115 174.647C440.314 174.26 440.413 173.822 440.413 173.331C440.413 172.819 440.309 172.375 440.1 171.999C439.901 171.622 439.624 171.325 439.269 171.105C438.924 170.886 438.517 170.776 438.047 170.776C437.576 170.776 437.164 170.886 436.809 171.105C436.453 171.325 436.171 171.628 435.962 172.014C435.764 172.39 435.665 172.824 435.665 173.315C435.665 173.816 435.764 174.26 435.962 174.647C436.171 175.023 436.453 175.321 436.809 175.54C437.174 175.76 437.592 175.869 438.062 175.869ZM441.745 177.045H440.319V175.039L440.585 173.221L440.319 171.419V165.855H441.745V177.045Z" fill="#02040B"/>
<path d="M384.776 170.84L390 176.063L397.836 164.31" stroke="#31C9A1" stroke-width="1.95896" stroke-linecap="round" stroke-linejoin="round"/>
<path d="M409.569 224.06V213.184H411.042V224.06H409.569ZM418.624 224.06V219.719C418.624 219.154 418.446 218.69 418.091 218.324C417.736 217.958 417.276 217.775 416.712 217.775C416.336 217.775 416.002 217.859 415.709 218.026C415.416 218.193 415.187 218.423 415.019 218.716C414.852 219.008 414.769 219.343 414.769 219.719L414.189 219.39C414.189 218.825 414.314 218.324 414.565 217.885C414.816 217.446 415.166 217.101 415.615 216.851C416.064 216.59 416.571 216.459 417.135 216.459C417.699 216.459 418.196 216.6 418.624 216.882C419.063 217.164 419.407 217.535 419.658 217.995C419.909 218.444 420.034 218.925 420.034 219.437V224.06H418.624ZM413.358 224.06V216.616H414.769V224.06H413.358ZM424.498 224.06L421.082 216.616H422.649L425.392 222.9H424.483L427.241 216.616H428.745L425.329 224.06H424.498ZM432.838 224.216C432.159 224.216 431.543 224.049 430.989 223.715C430.435 223.37 429.997 222.905 429.673 222.32C429.359 221.735 429.203 221.077 429.203 220.346C429.203 219.614 429.359 218.956 429.673 218.371C429.997 217.786 430.43 217.321 430.973 216.976C431.527 216.631 432.149 216.459 432.838 216.459C433.403 216.459 433.904 216.579 434.343 216.819C434.792 217.049 435.153 217.373 435.424 217.791C435.696 218.198 435.847 218.674 435.879 219.217V221.458C435.847 221.991 435.696 222.466 435.424 222.884C435.163 223.302 434.808 223.631 434.358 223.872C433.92 224.101 433.413 224.216 432.838 224.216ZM433.073 222.884C433.773 222.884 434.338 222.649 434.766 222.179C435.194 221.698 435.408 221.087 435.408 220.346C435.408 219.834 435.309 219.39 435.111 219.013C434.923 218.627 434.651 218.329 434.296 218.12C433.941 217.901 433.528 217.791 433.058 217.791C432.588 217.791 432.17 217.901 431.804 218.12C431.449 218.34 431.167 218.643 430.958 219.029C430.759 219.405 430.66 219.839 430.66 220.33C430.66 220.831 430.759 221.275 430.958 221.662C431.167 222.038 431.454 222.336 431.82 222.555C432.185 222.775 432.603 222.884 433.073 222.884ZM435.314 224.06V222.054L435.581 220.236L435.314 218.434V216.616H436.741V224.06H435.314ZM438.794 224.06V212.87H440.204V224.06H438.794ZM442.284 224.06V216.616H443.694V224.06H442.284ZM442.989 215.127C442.728 215.127 442.514 215.043 442.346 214.876C442.179 214.698 442.096 214.479 442.096 214.218C442.096 213.967 442.179 213.758 442.346 213.591C442.514 213.413 442.728 213.325 442.989 213.325C443.25 213.325 443.464 213.413 443.632 213.591C443.799 213.758 443.882 213.967 443.882 214.218C443.882 214.479 443.799 214.698 443.632 214.876C443.464 215.043 443.25 215.127 442.989 215.127ZM448.923 224.216C448.233 224.216 447.617 224.049 447.074 223.715C446.53 223.37 446.097 222.905 445.773 222.32C445.459 221.735 445.303 221.077 445.303 220.346C445.303 219.614 445.459 218.956 445.773 218.371C446.097 217.786 446.53 217.321 447.074 216.976C447.617 216.631 448.233 216.459 448.923 216.459C449.477 216.459 449.978 216.579 450.427 216.819C450.877 217.049 451.237 217.373 451.509 217.791C451.791 218.198 451.947 218.674 451.979 219.217V221.458C451.947 221.991 451.796 222.466 451.524 222.884C451.253 223.302 450.892 223.631 450.443 223.872C449.994 224.101 449.487 224.216 448.923 224.216ZM449.158 222.884C449.628 222.884 450.036 222.775 450.38 222.555C450.736 222.336 451.012 222.038 451.211 221.662C451.409 221.275 451.509 220.837 451.509 220.346C451.509 219.834 451.404 219.39 451.195 219.013C450.997 218.637 450.72 218.34 450.365 218.12C450.02 217.901 449.612 217.791 449.142 217.791C448.672 217.791 448.259 217.901 447.904 218.12C447.549 218.34 447.267 218.643 447.058 219.029C446.859 219.405 446.76 219.839 446.76 220.33C446.76 220.831 446.859 221.275 447.058 221.662C447.267 222.038 447.549 222.336 447.904 222.555C448.27 222.775 448.688 222.884 449.158 222.884ZM452.841 224.06H451.415V222.054L451.681 220.236L451.415 218.434V212.87H452.841V224.06Z" fill="#02040B"/>
<path d="M386.082 222.425L396.53 211.978M386.082 211.978L396.53 222.425" stroke="#95A2BB" stroke-width="1.95896" stroke-linecap="round" stroke-linejoin="round"/>
<defs>
<filter id="filter0_d_405_1245" x="0.820892" y="0.410446" width="522.388" height="519.776" filterUnits="userSpaceOnUse" color-interpolation-filters="sRGB">
<feFlood flood-opacity="0" result="BackgroundImageFix"/>
<feColorMatrix in="SourceAlpha" type="matrix" values="0 0 0 0 0 0 0 0 0 0 0 0 0 0 0 0 0 0 127 0" result="hardAlpha"/>
<feOffset dy="19.5896"/>
<feGaussianBlur stdDeviation="19.5896"/>
<feComposite in2="hardAlpha" operator="out"/>
<feColorMatrix type="matrix" values="0 0 0 0 0 0 0 0 0 0 0 0 0 0 0 0 0 0 0.15 0"/>
<feBlend mode="normal" in2="BackgroundImageFix" result="effect1_dropShadow_405_1245"/>
<feBlend mode="normal" in="SourceGraphic" in2="effect1_dropShadow_405_1245" result="shape"/>
</filter>
<filter id="filter1_d_405_1245" x="329.925" y="121.866" width="261.194" height="169.776" filterUnits="userSpaceOnUse" color-interpolation-filters="sRGB">
<feFlood flood-opacity="0" result="BackgroundImageFix"/>
<feColorMatrix in="SourceAlpha" type="matrix" values="0 0 0 0 0 0 0 0 0 0 0 0 0 0 0 0 0 0 127 0" result="hardAlpha"/>
<feOffset dy="13.0597"/>
<feGaussianBlur stdDeviation="13.0597"/>
<feComposite in2="hardAlpha" operator="out"/>
<feColorMatrix type="matrix" values="0 0 0 0 0 0 0 0 0 0 0 0 0 0 0 0 0 0 0.15 0"/>
<feBlend mode="normal" in2="BackgroundImageFix" result="effect1_dropShadow_405_1245"/>
<feBlend mode="normal" in="SourceGraphic" in2="effect1_dropShadow_405_1245" result="shape"/>
</filter>
</defs>
</svg>
