<svg width="80" height="80" viewBox="0 0 80 80" fill="none" xmlns="http://www.w3.org/2000/svg">
<path opacity="0.4" d="M57.0002 6.66699H43.0002C31.5002 6.66699 26.8335 11.2337 26.7002 22.5003H37.0002C51.0002 22.5003 57.5002 29.0003 57.5002 43.0003V53.3003C68.7669 53.167 73.3335 48.5003 73.3335 37.0003V23.0003C73.3335 11.3337 68.6669 6.66699 57.0002 6.66699Z" fill="#3D6BD8"/>
<path d="M36.9998 26.667H22.9998C11.3332 26.667 6.6665 31.3337 6.6665 43.0003V57.0003C6.6665 68.667 11.3332 73.3337 22.9998 73.3337H36.9998C48.6665 73.3337 53.3332 68.667 53.3332 57.0003V43.0003C53.3332 31.3337 48.6665 26.667 36.9998 26.667ZM40.9665 45.5003L28.5998 57.867C28.1332 58.3337 27.5332 58.567 26.8998 58.567C26.2665 58.567 25.6665 58.3337 25.1998 57.867L18.9998 51.667C18.0665 50.7337 18.0665 49.2337 18.9998 48.3003C19.9332 47.367 21.4332 47.367 22.3665 48.3003L26.8665 52.8003L37.5665 42.1003C38.4998 41.167 39.9998 41.167 40.9332 42.1003C41.8665 43.0337 41.8998 44.567 40.9665 45.5003Z" fill="#3D6BD8"/>
</svg>
