<svg width="22" height="24" viewBox="0 0 22 24" fill="none" xmlns="http://www.w3.org/2000/svg">
<path d="M6.64092 23.8748C6.40924 23.6911 6.35388 23.3618 6.5126 23.1122L13.3855 12.311C13.5059 12.1219 13.5059 11.8803 13.3855 11.6908L6.5126 0.889597C6.35388 0.639998 6.40924 0.311039 6.64092 0.12704C6.85116 -0.0396798 7.14844 -0.0396798 7.35867 0.12704L21.7596 11.5484C22.0511 11.7795 22.0511 12.222 21.7596 12.4534L7.35867 23.8748C7.14844 24.0415 6.85116 24.0415 6.64092 23.8748ZM6.90076 4.85502L0.938216 0.1264C0.833577 0.04352 0.703657 0 0.577578 0C0.451178 0 0.325098 0.0432 0.220459 0.1264C-0.0141005 0.310399 -0.0681801 0.638718 0.0905394 0.891197L6.9622 11.6908C7.08476 11.8819 7.08476 12.1238 6.9622 12.3113L0.0905394 23.1106C-0.0681801 23.3631 -0.0141005 23.6914 0.220459 23.8754C0.429738 24.0415 0.725417 24.0415 0.938216 23.8754L6.89372 19.15L11.446 12.0006L6.90076 4.85502Z" fill="#3D6BD8"/>
</svg>
